<mxfile host="app.diagrams.net" modified="2023-12-06T21:07:33.224Z" agent="Mozilla/5.0 (iPad; CPU OS 17_1_2 like Mac OS X) AppleWebKit/605.1.15 (KHTML, like Gecko) Version/17.1.2 Mobile/15E148 Safari/604.1" etag="OGaWblHIQoX-6VgrSWLP" version="22.1.7" type="github" pages="2">
  <diagram name="Journey Overview" id="3IOwZRXR32pdvV_m0YMN">
    <mxGraphModel dx="3464" dy="3120" grid="1" gridSize="10" guides="1" tooltips="1" connect="1" arrows="1" fold="1" page="1" pageScale="1" pageWidth="3300" pageHeight="2339" math="0" shadow="0">
      <root>
        <mxCell id="0" />
        <mxCell id="1" value="Background" parent="0" />
        <mxCell id="_2SgA2-SoOkLhTVM3puv-2" value="" style="orthogonalLoop=1;jettySize=auto;html=1;rounded=0;sketch=0;hachureGap=4;jiggle=2;fontFamily=Architects Daughter;fontSource=https%3A%2F%2Ffonts.googleapis.com%2Fcss%3Ffamily%3DArchitects%2BDaughter;fontSize=16;endArrow=none;sourcePerimeterSpacing=8;targetPerimeterSpacing=8;strokeWidth=6;shadow=0;elbow=vertical;endFill=0;" parent="1" edge="1">
          <mxGeometry width="120" relative="1" as="geometry">
            <mxPoint x="50" y="50" as="sourcePoint" />
            <mxPoint x="3250" y="50" as="targetPoint" />
          </mxGeometry>
        </mxCell>
        <mxCell id="_2SgA2-SoOkLhTVM3puv-3" value="" style="orthogonalLoop=1;jettySize=auto;html=1;rounded=0;sketch=0;hachureGap=4;jiggle=2;fontFamily=Architects Daughter;fontSource=https%3A%2F%2Ffonts.googleapis.com%2Fcss%3Ffamily%3DArchitects%2BDaughter;fontSize=16;endArrow=none;sourcePerimeterSpacing=8;targetPerimeterSpacing=8;strokeWidth=6;shadow=0;elbow=vertical;endFill=0;" parent="1" edge="1">
          <mxGeometry width="120" relative="1" as="geometry">
            <mxPoint x="50" y="2250" as="sourcePoint" />
            <mxPoint x="3250" y="2250" as="targetPoint" />
          </mxGeometry>
        </mxCell>
        <mxCell id="_2SgA2-SoOkLhTVM3puv-4" value="" style="orthogonalLoop=1;jettySize=auto;html=1;rounded=0;sketch=0;hachureGap=4;jiggle=2;fontFamily=Architects Daughter;fontSource=https%3A%2F%2Ffonts.googleapis.com%2Fcss%3Ffamily%3DArchitects%2BDaughter;fontSize=16;endArrow=none;sourcePerimeterSpacing=8;targetPerimeterSpacing=8;strokeWidth=6;shadow=0;elbow=vertical;endFill=0;" parent="1" edge="1">
          <mxGeometry width="120" relative="1" as="geometry">
            <mxPoint x="50" y="50" as="sourcePoint" />
            <mxPoint x="50" y="2250" as="targetPoint" />
          </mxGeometry>
        </mxCell>
        <mxCell id="_2SgA2-SoOkLhTVM3puv-5" value="" style="orthogonalLoop=1;jettySize=auto;html=1;rounded=0;sketch=0;hachureGap=4;jiggle=2;fontFamily=Architects Daughter;fontSource=https%3A%2F%2Ffonts.googleapis.com%2Fcss%3Ffamily%3DArchitects%2BDaughter;fontSize=16;endArrow=none;sourcePerimeterSpacing=8;targetPerimeterSpacing=8;strokeWidth=6;shadow=0;elbow=vertical;endFill=0;" parent="1" edge="1">
          <mxGeometry width="120" relative="1" as="geometry">
            <mxPoint x="3250" y="50" as="sourcePoint" />
            <mxPoint x="3250" y="2250" as="targetPoint" />
          </mxGeometry>
        </mxCell>
        <mxCell id="_2SgA2-SoOkLhTVM3puv-6" value="Design of Transformation &amp;amp; Change Journeys, Alexander Kempkens 2023&lt;br style=&quot;font-size: 12px;&quot;&gt;Designed by Think Network GmbH, Germany&lt;br style=&quot;font-size: 12px;&quot;&gt;Creative Commons 4.0, Attribution-NonCommercial-ShareAlike" style="text;strokeColor=none;fillColor=none;html=1;align=right;verticalAlign=top;whiteSpace=wrap;rounded=0;sketch=1;hachureGap=4;jiggle=2;fontFamily=Architects Daughter;fontSource=https%3A%2F%2Ffonts.googleapis.com%2Fcss%3Ffamily%3DArchitects%2BDaughter;fontSize=12;textOpacity=80;spacingTop=2;" parent="1" vertex="1">
          <mxGeometry x="2801" y="2254" width="450" height="54" as="geometry" />
        </mxCell>
        <mxCell id="_2SgA2-SoOkLhTVM3puv-7" value="published also at GRADO.group" style="text;strokeColor=none;fillColor=none;html=1;align=right;verticalAlign=top;whiteSpace=wrap;rounded=0;sketch=1;hachureGap=4;jiggle=2;fontFamily=Architects Daughter;fontSource=https%3A%2F%2Ffonts.googleapis.com%2Fcss%3Ffamily%3DArchitects%2BDaughter;fontSize=10;textOpacity=80;spacingTop=2;" parent="1" vertex="1">
          <mxGeometry x="3100" y="2306" width="151" height="31" as="geometry" />
        </mxCell>
        <mxCell id="_2SgA2-SoOkLhTVM3puv-8" value="&lt;a href=&quot;https://www.thinknetwork.com/alex-kempkens/&quot;&gt;Alexander Kempkens&lt;/a&gt;&amp;nbsp;@ THINKNETWORK.com" style="text;html=1;align=center;verticalAlign=middle;resizable=0;points=[];autosize=1;strokeColor=none;fillColor=none;sketch=1;hachureGap=4;jiggle=2;fontFamily=Architects Daughter;fontSource=https%3A%2F%2Ffonts.googleapis.com%2Fcss%3Ffamily%3DArchitects%2BDaughter;fontSize=10;" parent="1" vertex="1">
          <mxGeometry x="2801" y="2308" width="230" height="30" as="geometry" />
        </mxCell>
        <mxCell id="_2SgA2-SoOkLhTVM3puv-9" value="" style="orthogonalLoop=1;jettySize=auto;html=1;rounded=0;sketch=0;hachureGap=4;jiggle=2;fontFamily=Architects Daughter;fontSource=https%3A%2F%2Ffonts.googleapis.com%2Fcss%3Ffamily%3DArchitects%2BDaughter;fontSize=16;endArrow=none;sourcePerimeterSpacing=8;targetPerimeterSpacing=8;strokeWidth=6;shadow=0;elbow=vertical;endFill=0;" parent="1" edge="1">
          <mxGeometry width="120" relative="1" as="geometry">
            <mxPoint x="50" y="170" as="sourcePoint" />
            <mxPoint x="3250" y="170" as="targetPoint" />
          </mxGeometry>
        </mxCell>
      </root>
    </mxGraphModel>
  </diagram>
  <diagram id="b7uQHJcegoxjHDaz_sLu" name="Seite-2">
    <mxGraphModel dx="722" dy="650" grid="1" gridSize="10" guides="1" tooltips="1" connect="1" arrows="1" fold="1" page="0" pageScale="1" pageWidth="827" pageHeight="1169" math="0" shadow="0">
      <root>
        <mxCell id="0" />
        <mxCell id="1" style="locked=1;" parent="0" />
        <mxCell id="oBUyhAsZG9yRsoBhtxP7-1" value="" style="shape=image;verticalLabelPosition=bottom;labelBackgroundColor=default;verticalAlign=top;aspect=fixed;imageAspect=0;image=data:image/svg+xml,PHN2ZyB4bWxucz0iaHR0cDovL3d3dy53My5vcmcvMjAwMC9zdmciIHhtbG5zOnhsaW5rPSJodHRwOi8vd3d3LnczLm9yZy8xOTk5L3hsaW5rIiB2ZXJzaW9uPSIxLjEiIHdpZHRoPSIxMDAlIiB2aWV3Qm94PSIwIDAgMjgwMCAxOTgwIiBoZWlnaHQ9IjEwMCUiPiYjeGE7PG1ldGFkYXRhPiYjeGE7JiN4YTs8L21ldGFkYXRhPiYjeGE7PG1ldGFkYXRhPiYjeGE7JiN4YTsmI3hhOyYjeGE7JiN4YTsmI3hhOyYjeGE7JiN4YTsmI3hhOyYjeGE7JiN4YTsmI3hhOzwvbWV0YWRhdGE+JiN4YTs8ZGVmcz4mI3hhOzxwYXRoIHRyYW5zZm9ybT0ibWF0cml4KDEgLTAgLTAgMSAwIC0zNzguODIpIiBkPSJNNTAwKzE1NzguODJMMTAwMCsxNTc4LjgyIiBpZD0iVGV4dFBhdGgiLz4mI3hhOzwvZGVmcz4mI3hhOzxnIGlkPSJTaWduYXR1ciI+JiN4YTs8cGF0aCBzdHJva2Utb3BhY2l0eT0iMC45MDMwNjEiIGQ9Ik01MTQuMTk2KzE3MDcuMTNDNTE0LjE5NisxNzA3LjEzKzUxMS45MTIrMTcwNi4yKzUxMC45NjMrMTcwNi43MkM1MDguNzE2KzE3MDcuOTcrNTA3LjM2NysxNzEwLjc5KzUwNy43MjkrMTcxMy4zM0M1MDguMDM2KzE3MTUuNDcrNTExLjA2OSsxNzE2LjA2KzUxMi44NDkrMTcxNS42MkM1MTMuNTE3KzE3MTUuNDUrNTE0LjYwMSsxNzE0Ljg0KzUxNC42MDErMTcxNS4yMSIgb3BhY2l0eT0iMC44MDE5MTciIHN0cm9rZS1saW5lY2FwPSJyb3VuZCIgZmlsbD0ibm9uZSIgc3Ryb2tlLXdpZHRoPSIyLjAxMTcyIiBzdHJva2U9IiMwMDAwMDAiLz4mI3hhOzxwYXRoIHN0cm9rZS1vcGFjaXR5PSIwLjkwMzA2MSIgZD0iTTUxMy40NTUrMTcwMi40MUM1MTUuNjA0KzE3MDMuOSs1MDYuOTE5KzE3MDAuMjQrNTAyLjYwOSsxNzA1Ljc4QzQ5OC4xODYrMTcxMS40Nys0OTkuNTI2KzE3MTkuOCs1MDUuNTczKzE3MjMuNDNDNTExLjc2MisxNzI3LjE0KzUyNC4zOTQrMTcxNC4wMis1MjMuMzU4KzE3MDcuOEM1MjIuNjk1KzE3MDMuODIrNTA3LjU0NysxNjk4LjMyKzUxMy40NTUrMTcwMi40MVoiIG9wYWNpdHk9IjAuODAxOTE3IiBzdHJva2UtbGluZWNhcD0icm91bmQiIGZpbGw9Im5vbmUiIHN0cm9rZS13aWR0aD0iMi4wMTE3MiIgc3Ryb2tlPSIjMDAwMDAwIi8+JiN4YTs8cGF0aCBzdHJva2Utb3BhY2l0eT0iMC45MDMwNjEiIGQ9Ik01MzMuNDY0KzE3MDUuOTJDNTMxLjY1NysxNzA0LjExKzUzNi4xMTcrMTcwMS40Mis1MzYuNjk3KzE3MDMuMzZDNTM4LjI4NCsxNzA4LjY0KzUzMS40MzIrMTcxMi42KzUzMi41MisxNzE3LjVDNTMzLjIzNSsxNzIwLjcyKzUzOS41MTgrMTcxNS43Nis1NDAuNDcrMTcxNS4yMSIgb3BhY2l0eT0iMC44MDE5MTciIHN0cm9rZS1saW5lY2FwPSJyb3VuZCIgZmlsbD0ibm9uZSIgc3Ryb2tlLXdpZHRoPSIyLjAxMTcyIiBzdHJva2U9IiMwMDAwMDAiLz4mI3hhOzxwYXRoIHN0cm9rZS1vcGFjaXR5PSIwLjkwMzA2MSIgZD0iTTU1MC40NCsxNzA2Ljc5QzU1Ni4wNysxNzA1LjM0KzU0Mi4xMDcrMTcwMy44Mis1NDUuNTkrMTcxNC4yN0M1NDUuODg1KzE3MTUuMTYrNTQ3LjM4KzE3MTcuNDUrNTQ4LjY4OCsxNzE3LjVDNTU1LjM3MysxNzE3Ljc2KzU1OC4zODIrMTcwNy44NSs1NTMuMjY5KzE3MDMuNzZDNTUxLjI5MSsxNzAyLjE4KzU0Ni43MzMrMTcwNy43NCs1NTAuNDQrMTcwNi43OVoiIG9wYWNpdHk9IjAuODAxOTE3IiBzdHJva2UtbGluZWNhcD0icm91bmQiIGZpbGw9Im5vbmUiIHN0cm9rZS13aWR0aD0iMi4wMTE3MiIgc3Ryb2tlPSIjMDAwMDAwIi8+JiN4YTs8cGF0aCBzdHJva2Utb3BhY2l0eT0iMC45MDMwNjEiIGQ9Ik01NjQuMTgzKzE3MDQuN0M1NjQuMTgzKzE3MDIuNDIrNTY4LjM4MSsxNzAwLjU0KzU2OC44OTkrMTcwNC4xNkM1NjkuNTAyKzE3MDguMzkrNTY0LjkzOCsxNzEyLjQyKzU2My43NzkrMTcxNi4yOUM1NjIuNzY0KzE3MTkuNjcrNTY5LjUxOSsxNzE2LjgzKzU3MC43ODUrMTcxNi44MyIgb3BhY2l0eT0iMC44MDE5MTciIHN0cm9rZS1saW5lY2FwPSJyb3VuZCIgZmlsbD0ibm9uZSIgc3Ryb2tlLXdpZHRoPSIyLjAxMTcyIiBzdHJva2U9IiMwMDAwMDAiLz4mI3hhOzxwYXRoIHN0cm9rZS1vcGFjaXR5PSIwLjkwMzA2MSIgZD0iTTU3Ni45ODMrMTcwNC40M0M1NzYuOTgzKzE3MDAuMzYrNTgyLjE0NSsxNzAyLjIrNTgyLjY0MisxNzA1LjUxQzU4My4xOTUrMTcwOS4yKzU3Mi42MDkrMTcxOS45Nys1ODAuNzU1KzE3MTcuNjRDNTgyLjM2MisxNzE3LjE4KzU4My43OTgrMTcxNi41Nis1ODUuNDcxKzE3MTYuNTYiIG9wYWNpdHk9IjAuODAxOTE3IiBzdHJva2UtbGluZWNhcD0icm91bmQiIGZpbGw9Im5vbmUiIHN0cm9rZS13aWR0aD0iMi4wMTE3MiIgc3Ryb2tlPSIjMDAwMDAwIi8+JiN4YTs8cGF0aCBzdHJva2Utb3BhY2l0eT0iMC45MDMwNjEiIGQ9Ik01OTIuNjEyKzE3MTYuODNDNTkyLjYxMisxNzE1LjEyKzU5MC4wODErMTcyMi40OCs1ODkuNzgzKzE3MjMuOTciIG9wYWNpdHk9IjAuODAxOTE3IiBzdHJva2UtbGluZWNhcD0icm91bmQiIGZpbGw9Im5vbmUiIHN0cm9rZS13aWR0aD0iMi4wMTE3MiIgc3Ryb2tlPSIjMDAwMDAwIi8+JiN4YTs8cGF0aCBzdHJva2Utb3BhY2l0eT0iMC45MDMwNjEiIGQ9Ik02MDEuMSsxNzE4Ljk4QzU5Ni45NTMrMTcyMS40Nys2MTcuNDc4KzE3MDMuNCs2MTQuMzA0KzE2OTguNjRDNjEzLjQ3OSsxNjk3LjQrNjEwLjUzMSsxNzAyLjYzKzYxMC4zOTcrMTcwMi45NUM2MDguNzk3KzE3MDYuODIrNjA1Ljc5NSsxNzE1Ljg1KzYwOS43MjMrMTcxOS4xMkM2MDkuNzQ4KzE3MTkuMTQrNjA5LjcyMysxNzE3Ljk5KzYwOC4zNzYrMTcxNy4yM0M2MDYuNjU2KzE3MTYuMjcrNjA0LjI1OSsxNzE1Ljc2KzYwMi4zMTMrMTcxNS4zNUM2MDEuNTk3KzE3MTUuMis1OTkuNDI2KzE3MTQuOTQrNjAwLjE1NysxNzE0Ljk0QzYwNC45MjErMTcxNC45NCs2MDkuNTcyKzE3MTMuNzMrNjE0LjMwNCsxNzEzLjczIiBvcGFjaXR5PSIwLjgwMTkxNyIgc3Ryb2tlLWxpbmVjYXA9InJvdW5kIiBmaWxsPSJub25lIiBzdHJva2Utd2lkdGg9IjIuMDExNzIiIHN0cm9rZT0iIzAwMDAwMCIvPiYjeGE7PHBhdGggc3Ryb2tlLW9wYWNpdHk9IjAuOTAzMDYxIiBkPSJNNjE4LjIxMSsxNzE3Ljk3QzYxOC42NzkrMTcxNi4zNCs2MTYuMTgxKzE3MTcuMDcrNjE2LjU5NSsxNzE4LjMxQzYxNi43MzIrMTcxOC43Mis2MTguMDc0KzE3MTguNDYrNjE4LjIxMSsxNzE3Ljk3WiIgb3BhY2l0eT0iMC44MDE5MTciIHN0cm9rZS1saW5lY2FwPSJyb3VuZCIgZmlsbD0ibm9uZSIgc3Ryb2tlLXdpZHRoPSIyLjAxMTcyIiBzdHJva2U9IiMwMDAwMDAiLz4mI3hhOzxwYXRoIHN0cm9rZS1vcGFjaXR5PSIwLjkwMzA2MSIgZD0iTTYzMC4zMzgrMTY5Ny4xNkM2MjkuOTI5KzE2OTUuNTIrNjMwLjQ1MysxNzAzLjI1KzYzMC40NzIrMTcwMy42M0M2MzAuNjI0KzE3MDYuNTErNjI5LjgyKzE3MTcuNzIrNjMwLjIwMysxNzE3LjkxQzYzMC42NjErMTcxOC4xNCs2MzAuOTAzKzE3MTcuMTUrNjMxLjE0NisxNzE2LjY5QzYzMy41MDgrMTcxMi4zMSs2MzQuMTY5KzE3MDcuMTErNjM2LjY3KzE3MDIuNjhDNjM2Ljk2NysxNzAyLjE2KzYzNy41NDgrMTcwMC44Mys2MzcuODgzKzE3MDEuMzNDNjM5LjM2NCsxNzAzLjU2KzYzNS4zMTQrMTcxNS40Nys2MzIuMjI0KzE3MTIuMzhDNjMxLjQ4MSsxNzExLjY0KzYzMy40OTErMTcxMC40NCs2MzMuOTc1KzE3MTAuNzdDNjM2LjAxMysxNzEyLjEyKzY0NC40MTIrMTcxOC41OSs2NDcuMTc5KzE3MTMuMDZDNjQ4LjgzKzE3MDkuNzYrNjM4LjQzMisxNzEyLjEyKzY0MC41NzcrMTcxMy4xOUM2NDQuODAyKzE3MTUuMys2NDkuMzkrMTcxNC43NCs2NTMuNzgxKzE3MTMuODZDNjU1LjU1NysxNzEzLjUxKzY1OS4wMzkrMTcxMy4wNSs2NTkuOTc5KzE3MTIuMTFDNjYwLjA4KzE3MTIuMDErNjYwLjM4MysxNzExLjg0KzY2MC4zODMrMTcxMS45OEM2NjAuMzgzKzE3MTQuMTErNjU3LjQ3NSsxNzE3LjczKzY1Ni40NzYrMTcxOS41MkM2NTUuODMyKzE3MjAuNjgrNjUzLjk5NysxNzI0LjIxKzY1NC41OSsxNzIzLjAzQzY1Ni43MSsxNzE4Ljc5KzY2My4yMDQrMTcwNy42MSs2NjQuOTY0KzE3MDkuMDFDNjY3LjAxNisxNzEwLjY2KzY2Mi4zMDMrMTcxNC42Nys2NjAuNTE4KzE3MTQuNjciIG9wYWNpdHk9IjAuODAxOTE3IiBzdHJva2UtbGluZWNhcD0icm91bmQiIGZpbGw9Im5vbmUiIHN0cm9rZS13aWR0aD0iMi4wMTE3MiIgc3Ryb2tlPSIjMDAwMDAwIi8+JiN4YTs8cGF0aCBzdHJva2Utb3BhY2l0eT0iMC45MDMwNjEiIGQ9Ik02NzAuNjIzKzE2OTMuNTJDNjcwLjE2MysxNjkzLjUyKzY3MC4xNDErMTY5NS44Nis2NzAuMDg0KzE2OTYuMzVDNjY5LjczNCsxNjk5LjMzKzY2Ny4zMDMrMTcxNC44Nis2NjguNzM3KzE3MTYuMjlDNjY5LjI3NysxNzE2LjgzKzY2OS40NTMrMTcxNC45NCs2NjkuODE1KzE3MTQuMjdDNjcxLjErMTcxMS44OCs2NzIuMTErMTcxMC4xMSs2NzMuNzIyKzE3MDcuOTRDNjc0LjIzNisxNzA3LjI0KzY3NS4zMzkrMTcwNS4wNSs2NzUuMzM5KzE3MDUuOTJDNjc1LjMzOSsxNzA4LjQ5KzY3MS4yNjYrMTcxMC40Nis2NzEuMDI3KzE3MTMuMzNDNjcwLjcyOSsxNzE2LjkrNjc4LjUzNCsxNzE1LjYyKzY3OS4zODErMTcxMi42NUM2ODAuNTYxKzE3MDguNTIrNjcwLjk4NisxNzEwLjEyKzY3Mi4xMDUrMTcxMi45MkM2NzMuNjYxKzE3MTYuODErNjg1LjA3OSsxNzEzLjA5KzY4Ny43MzQrMTcxMi42NUM2ODguNjU0KzE3MTIuNSs2ODkuNTI5KzE3MTIuMDcrNjkwLjQyOSsxNzExLjg0QzY5NC41NTkrMTcxMC44MSs2OTEuNjExKzE3MTEuNDIrNjkyLjE4MSsxNzExLjcxQzY5Mi43NSsxNzExLjk5KzY5NS45NzkrMTcxMS40Nys2OTUuODE5KzE3MTIuOTJDNjk1LjM0MisxNzE3LjIxKzY4MS4xMDUrMTcxOS43NCs2ODAuNDU5KzE3MTUuMjEiIG9wYWNpdHk9IjAuODAxOTE3IiBzdHJva2UtbGluZWNhcD0icm91bmQiIGZpbGw9Im5vbmUiIHN0cm9rZS13aWR0aD0iMi4wMTE3MiIgc3Ryb2tlPSIjMDAwMDAwIi8+JiN4YTs8L2c+JiN4YTs8ZyBpZD0iQmV6ZWljaG51bmdlbiI+JiN4YTs8dGV4dCBmaWxsPSIjMWY3ZmM2IiBvcGFjaXR5PSIxIiB0cmFuc2Zvcm09Im1hdHJpeCgxIDAgMCAxIDAgMzc4LjgyKSIgZm9udC1mYW1pbHk9IidOb3Rld29ydGh5LUJvbGQnIiBmb250LXNpemU9IjUwIj4mI3hhOzx0ZXh0UGF0aCBzdGFydE9mZnNldD0iMHB0IiBtZXRob2Q9ImFsaWduIiB4bGluazpocmVmPSIjVGV4dFBhdGgiPiYjeGE7T3JnYW5pemF0aW9uPC90ZXh0UGF0aD4mI3hhOzwvdGV4dD4mI3hhOzx0ZXh0IHRyYW5zZm9ybT0ibWF0cml4KDEgMCAwIDEgNTAwIDExODguNSkiIG9wYWNpdHk9IjEiIGZvbnQtc2l6ZT0iNTAiIGZpbGw9IiM3ZmM4YTgiIHRleHQtYW5jaG9yPSJzdGFydCIgeT0iMCIgZm9udC1mYW1pbHk9IidOb3Rld29ydGh5LUJvbGQnIiBzdHlsZT0iZm9udC1mYW1pbHk6J05vdGV3b3J0aHktQm9sZCcsICdOb3Rld29ydGh5Jztmb250LXdlaWdodDo3MDA7IiB4PSIwIj4mI3hhOzx0c3BhbiB0ZXh0TGVuZ3RoPSI0MTEuOTM4IiB5PSI2NCIgeD0iMCI+JiN4YTtWYWx1ZSBSZXNwb25zaWJsZXM8L3RzcGFuPiYjeGE7PC90ZXh0PiYjeGE7PHRleHQgdHJhbnNmb3JtPSJtYXRyaXgoMSAwIDAgMSA1MDAgNTAwKSIgb3BhY2l0eT0iMSIgZm9udC1zaXplPSI1MCIgZmlsbD0iIzVlNDU5MSIgdGV4dC1hbmNob3I9InN0YXJ0IiB5PSIwIiBmb250LWZhbWlseT0iJ05vdGV3b3J0aHktQm9sZCciIHN0eWxlPSJmb250LWZhbWlseTonTm90ZXdvcnRoeS1Cb2xkJywgJ05vdGV3b3J0aHknO2ZvbnQtd2VpZ2h0OjcwMDsiIHg9IjAiPiYjeGE7PHRzcGFuIHRleHRMZW5ndGg9IjMxMi41NjIiIHk9IjY0IiB4PSIwIj4mI3hhO1ZhbHVlIENyZWF0b3JzPC90c3Bhbj4mI3hhOzwvdGV4dD4mI3hhOzx0ZXh0IHRyYW5zZm9ybT0ibWF0cml4KDEgLTIuNDQ5MjllLTE2IDIuNDQ5MjllLTE2IDEgMjMzMSAxMTkpIiBvcGFjaXR5PSIwLjgwMTkxNyIgZm9udC1zaXplPSI1MCIgZmlsbD0iIzAwMDAwMCIgdGV4dC1hbmNob3I9Im1pZGRsZSIgeT0iMCIgZm9udC1mYW1pbHk9IidOb3Rld29ydGh5LUJvbGQnIiBzdHlsZT0iZm9udC1mYW1pbHk6J05vdGV3b3J0aHktQm9sZCcsICdOb3Rld29ydGh5Jztmb250LXdlaWdodDo3MDA7IiB4PSIwIj4mI3hhOzx0c3BhbiB0ZXh0TGVuZ3RoPSIyNTQuNjg4IiB5PSI2NCIgeD0iMTU1LjIxOSI+JiN4YTtCdXNpbmVzcyAmYW1wO2FtcDsgPC90c3Bhbj4mI3hhOzx0c3BhbiB0ZXh0TGVuZ3RoPSIyNzMuODc1IiB5PSIxNDUiIHg9IjE1MCI+JiN4YTtPcmcuIExlYWRlcnM8L3RzcGFuPiYjeGE7PC90ZXh0PiYjeGE7PHRleHQgdHJhbnNmb3JtPSJtYXRyaXgoMSAtMi40NDkyOWUtMTYgMi40NDkyOWUtMTYgMSAxODUwIDEyNSkiIG9wYWNpdHk9IjAuODAxOTE3IiBmb250LXNpemU9IjUwIiBmaWxsPSIjMDAwMDAwIiB0ZXh0LWFuY2hvcj0ibWlkZGxlIiB5PSIwIiBmb250LWZhbWlseT0iJ05vdGV3b3J0aHktQm9sZCciIHN0eWxlPSJmb250LWZhbWlseTonTm90ZXdvcnRoeS1Cb2xkJywgJ05vdGV3b3J0aHknO2ZvbnQtd2VpZ2h0OjcwMDsiIHg9IjAiPiYjeGE7PHRzcGFuIHRleHRMZW5ndGg9IjI4Ni41NjIiIHk9IjY0IiB4PSIxNTUuMjE5Ij4mI3hhO0Zsb3cgJmFtcDthbXA7IFRlYW0gPC90c3Bhbj4mI3hhOzx0c3BhbiB0ZXh0TGVuZ3RoPSIyNzYuNDM4IiB5PSIxNDUiIHg9IjE1MCI+JiN4YTtNYW5hZ2VtZW50PC90c3Bhbj4mI3hhOzwvdGV4dD4mI3hhOzx0ZXh0IHRyYW5zZm9ybT0ibWF0cml4KDEgMCAwIDEgMTI1MCAxNDQpIiBvcGFjaXR5PSIwLjgwMTkxNyIgZm9udC1zaXplPSI1MCIgZmlsbD0iIzAwMDAwMCIgdGV4dC1hbmNob3I9Im1pZGRsZSIgeT0iMCIgZm9udC1mYW1pbHk9IidOb3Rld29ydGh5LUJvbGQnIiBzdHlsZT0iZm9udC1mYW1pbHk6J05vdGV3b3J0aHktQm9sZCcsICdOb3Rld29ydGh5Jztmb250LXdlaWdodDo3MDA7IiB4PSIwIj4mI3hhOzx0c3BhbiB0ZXh0TGVuZ3RoPSIzMTcuMDYyIiB5PSI2NCIgeD0iMjYyLjUiPiYjeGE7VGVhbSBUb3BvbG9naWU8L3RzcGFuPiYjeGE7PC90ZXh0PiYjeGE7PHRleHQgdHJhbnNmb3JtPSJtYXRyaXgoMSAwIDAgMSAxMDI1IDExMykiIG9wYWNpdHk9IjAuODAxOTE3IiBmb250LXNpemU9IjUwIiBmaWxsPSIjMDAwMDAwIiB0ZXh0LWFuY2hvcj0ibWlkZGxlIiB5PSIwIiBmb250LWZhbWlseT0iJ05vdGV3b3J0aHktQm9sZCciIHN0eWxlPSJmb250LWZhbWlseTonTm90ZXdvcnRoeS1Cb2xkJywgJ05vdGV3b3J0aHknO2ZvbnQtd2VpZ2h0OjcwMDsiIHg9IjAiPiYjeGE7PHRzcGFuIHRleHRMZW5ndGg9Ijk2LjE4NzUiIHk9IjY0IiB4PSIxMDUuMjE5Ij4mI3hhO0pvYiA8L3RzcGFuPiYjeGE7PHRzcGFuIHRleHRMZW5ndGg9IjE2NS44MTIiIHk9IjE0NSIgeD0iMTAwIj4mI3hhO0ZhbWlsaWVzPC90c3Bhbj4mI3hhOzwvdGV4dD4mI3hhOzwvZz4mI3hhOzxnIGlkPSJOYW1lbiI+JiN4YTs8dGV4dCB0cmFuc2Zvcm09Im1hdHJpeCgxIDAgMCAxIDEzMjMuMjkgNjEwLjAyMykiIG9wYWNpdHk9IjAuODAxOTE3IiBmb250LXNpemU9IjI0IiBmaWxsPSIjMDAwMDAwIiB0ZXh0LWFuY2hvcj0ibWlkZGxlIiB5PSIwIiBmb250LWZhbWlseT0iJ05vdGV3b3J0aHktQm9sZCciIHN0eWxlPSJmb250LWZhbWlseTonTm90ZXdvcnRoeS1Cb2xkJywgJ05vdGV3b3J0aHknO2ZvbnQtd2VpZ2h0OjcwMDsiIHg9IjAiPiYjeGE7PHRzcGFuIHRleHRMZW5ndGg9IjkyLjA3IiB5PSIzMSIgeD0iNjIuNSI+JiN4YTtFbmdpbmVlcjwvdHNwYW4+JiN4YTs8L3RleHQ+JiN4YTs8dGV4dCB0cmFuc2Zvcm09Im1hdHJpeCgxIDAgMCAxIDE0NDAuMTIgNTcxLjAyMykiIG9wYWNpdHk9IjAuODAxOTE3IiBmb250LXNpemU9IjI0IiBmaWxsPSIjMDAwMDAwIiB0ZXh0LWFuY2hvcj0ibWlkZGxlIiB5PSIwIiBmb250LWZhbWlseT0iJ05vdGV3b3J0aHktQm9sZCciIHN0eWxlPSJmb250LWZhbWlseTonTm90ZXdvcnRoeS1Cb2xkJywgJ05vdGV3b3J0aHknO2ZvbnQtd2VpZ2h0OjcwMDsiIHg9IjAiPiYjeGE7PHRzcGFuIHRleHRMZW5ndGg9IjcxLjA3IiB5PSIzMSIgeD0iNjUuMDA1Ij4mI3hhO1NlbmlvciA8L3RzcGFuPiYjeGE7PHRzcGFuIHRleHRMZW5ndGg9IjkyLjA3IiB5PSI3MCIgeD0iNjIuNSI+JiN4YTtFbmdpbmVlcjwvdHNwYW4+JiN4YTs8L3RleHQ+JiN4YTs8dGV4dCB0cmFuc2Zvcm09Im1hdHJpeCgxIDAgMCAxIDE1NjAuMzUgNTcxLjAyMykiIG9wYWNpdHk9IjAuODAxOTE3IiBmb250LXNpemU9IjI0IiBmaWxsPSIjMDAwMDAwIiB0ZXh0LWFuY2hvcj0ibWlkZGxlIiB5PSIwIiBmb250LWZhbWlseT0iJ05vdGV3b3J0aHktQm9sZCciIHN0eWxlPSJmb250LWZhbWlseTonTm90ZXdvcnRoeS1Cb2xkJywgJ05vdGV3b3J0aHknO2ZvbnQtd2VpZ2h0OjcwMDsiIHg9IjAiPiYjeGE7PHRzcGFuIHRleHRMZW5ndGg9Ijk0LjU2IiB5PSIzMSIgeD0iNjUuMDA1Ij4mI3hhO1ByaW5jaXBsZSA8L3RzcGFuPiYjeGE7PHRzcGFuIHRleHRMZW5ndGg9IjkyLjA3IiB5PSI3MCIgeD0iNjIuNSI+JiN4YTtFbmdpbmVlcjwvdHNwYW4+JiN4YTs8L3RleHQ+JiN4YTs8dGV4dCB0cmFuc2Zvcm09Im1hdHJpeCgxIDAgMCAxIDI0MDYuODQgNjEwLjAyMykiIG9wYWNpdHk9IjAuODAxOTE3IiBmb250LXNpemU9IjI0IiBmaWxsPSIjMDAwMDAwIiB0ZXh0LWFuY2hvcj0ibWlkZGxlIiB5PSIwIiBmb250LWZhbWlseT0iJ05vdGV3b3J0aHktQm9sZCciIHN0eWxlPSJmb250LWZhbWlseTonTm90ZXdvcnRoeS1Cb2xkJywgJ05vdGV3b3J0aHknO2ZvbnQtd2VpZ2h0OjcwMDsiIHg9IjAiPiYjeGE7PHRzcGFuIHRleHRMZW5ndGg9IjcxLjA3IiB5PSIzMSIgeD0iNzUiPiYjeGE7RXhwZXJ0PC90c3Bhbj4mI3hhOzwvdGV4dD4mI3hhOzx0ZXh0IHRyYW5zZm9ybT0ibWF0cml4KDEgMCAwIDEgMTQzMy40NSA4OTcuMjAzKSIgb3BhY2l0eT0iMC44MDE5MTciIGZvbnQtc2l6ZT0iMjQiIGZpbGw9IiMwMDAwMDAiIHRleHQtYW5jaG9yPSJtaWRkbGUiIHk9IjAiIGZvbnQtZmFtaWx5PSInTm90ZXdvcnRoeS1Cb2xkJyIgc3R5bGU9ImZvbnQtZmFtaWx5OidOb3Rld29ydGh5LUJvbGQnLCAnTm90ZXdvcnRoeSc7Zm9udC13ZWlnaHQ6NzAwOyIgeD0iMCI+JiN4YTs8dHNwYW4gdGV4dExlbmd0aD0iNzAuNSIgeT0iMzEiIHg9IjY1LjAwNSI+JiN4YTtTY3J1bSA8L3RzcGFuPiYjeGE7PHRzcGFuIHRleHRMZW5ndGg9Ijc0LjgyIiB5PSI3MCIgeD0iNjIuNSI+JiN4YTtNYXN0ZXI8L3RzcGFuPiYjeGE7PC90ZXh0PiYjeGE7PHRleHQgdHJhbnNmb3JtPSJtYXRyaXgoMSAwIDAgMSAxODExLjg4IDU3MS4wMjMpIiBvcGFjaXR5PSIwLjgwMTkxNyIgZm9udC1zaXplPSIyNCIgZmlsbD0iIzAwMDAwMCIgdGV4dC1hbmNob3I9Im1pZGRsZSIgeT0iMCIgZm9udC1mYW1pbHk9IidOb3Rld29ydGh5LUJvbGQnIiBzdHlsZT0iZm9udC1mYW1pbHk6J05vdGV3b3J0aHktQm9sZCcsICdOb3Rld29ydGh5Jztmb250LXdlaWdodDo3MDA7IiB4PSIwIj4mI3hhOzx0c3BhbiB0ZXh0TGVuZ3RoPSIxNDIuNzEiIHk9IjMxIiB4PSI3Ny41MDUiPiYjeGE7UmVsZWFzZSBUcmFpbiA8L3RzcGFuPiYjeGE7PHRzcGFuIHRleHRMZW5ndGg9IjkzLjk5IiB5PSI3MCIgeD0iNzUiPiYjeGE7QXJjaGl0ZWN0PC90c3Bhbj4mI3hhOzwvdGV4dD4mI3hhOzx0ZXh0IHRyYW5zZm9ybT0ibWF0cml4KDEgMCAwIDEgMTk3NSA1NzEuMDIzKSIgb3BhY2l0eT0iMC44MDE5MTciIGZvbnQtc2l6ZT0iMjQiIGZpbGw9IiMwMDAwMDAiIHRleHQtYW5jaG9yPSJtaWRkbGUiIHk9IjAiIGZvbnQtZmFtaWx5PSInTm90ZXdvcnRoeS1Cb2xkJyIgc3R5bGU9ImZvbnQtZmFtaWx5OidOb3Rld29ydGh5LUJvbGQnLCAnTm90ZXdvcnRoeSc7Zm9udC13ZWlnaHQ6NzAwOyIgeD0iMCI+JiN4YTs8dHNwYW4gdGV4dExlbmd0aD0iMTQyLjYyIiB5PSIzMSIgeD0iNzcuNTA1Ij4mI3hhO1NvbHV0aW9uIFRyYWluIDwvdHNwYW4+JiN4YTs8dHNwYW4gdGV4dExlbmd0aD0iOTMuOTkiIHk9IjcwIiB4PSI3NSI+JiN4YTtBcmNoaXRlY3Q8L3RzcGFuPiYjeGE7PC90ZXh0PiYjeGE7PHRleHQgdHJhbnNmb3JtPSJtYXRyaXgoMSAwIDAgMSAxOTUwIDEyMjEpIiBvcGFjaXR5PSIwLjgwMTkxNyIgZm9udC1zaXplPSIyNCIgZmlsbD0iIzAwMDAwMCIgdGV4dC1hbmNob3I9Im1pZGRsZSIgeT0iMCIgZm9udC1mYW1pbHk9IidOb3Rld29ydGh5LUJvbGQnIiBzdHlsZT0iZm9udC1mYW1pbHk6J05vdGV3b3J0aHktQm9sZCcsICdOb3Rld29ydGh5Jztmb250LXdlaWdodDo3MDA7IiB4PSIwIj4mI3hhOzx0c3BhbiB0ZXh0TGVuZ3RoPSI4Ni43OSIgeT0iMzEiIHg9Ijc3LjUwNSI+JiN4YTtTb2x1dGlvbiA8L3RzcGFuPiYjeGE7PHRzcGFuIHRleHRMZW5ndGg9IjkzLjA5IiB5PSI3MCIgeD0iNzUiPiYjeGE7TWFuYWdlcjwvdHNwYW4+JiN4YTs8L3RleHQ+JiN4YTs8L2c+JiN4YTs8ZyBpZD0iQmFzaWMgZmlndXJlcyI+JiN4YTs8ZyBvcGFjaXR5PSIxIj4mI3hhOzxwYXRoIHN0cm9rZS1saW5lam9pbj0icm91bmQiIG9wYWNpdHk9IjEiIHN0cm9rZS1saW5lY2FwPSJyb3VuZCIgZmlsbD0ibm9uZSIgZD0iTTI0NTQuMjkrMTQ4MC45NkMyNDQ5LjU5KzE0ODkuMDkrMjQ1NC44MysxNDg2Ljk3KzI0NTEuODErMTQ5Ny41MkMyNDUwLjk5KzE1MDAuMzgrMjQ1MC43NSsxNTE5LjUrMjQ1Mi42NCsxNTIyLjM2QzI0NTQuNzIrMTUyNS41MisyNDY1LjM3KzE1MjEuNjgrMjQ2OS4xOSsxNTIyLjc3QzI0NzAuNTYrMTUyMy4xNisyNDgwLjA1KzE1MjEuNDMrMjQ4Mi44NSsxNTIxLjk0IiBzdHJva2Utd2lkdGg9IjUiIHN0cm9rZT0iIzFmN2ZjNiIvPiYjeGE7PHBhdGggc3Ryb2tlLWxpbmVqb2luPSJyb3VuZCIgb3BhY2l0eT0iMSIgc3Ryb2tlLWxpbmVjYXA9InJvdW5kIiBmaWxsPSJub25lIiBkPSJNMjQ5NC44NisxNDgwLjE0QzI0OTIuNzErMTQ4My44NSsyNDkzLjgzKzE0OTIuMDgrMjQ5NC4wMysxNDk2LjY5QzI0OTQuNTIrMTUwOC4xKzI0OTEuODErMTUxMi4xKzI0OTQuNDQrMTUyMS45NEMyNDk0Ljk1KzE1MjMuODIrMjUwMi4yNCsxNTIxLjY3KzI1MDMuMTQrMTUyMS41M0MyNTAzLjU5KzE1MjEuNDYrMjUxMy4wNysxNTIxLjUzKzI1MTMuMDcrMTUyMS41MyIgc3Ryb2tlLXdpZHRoPSI1IiBzdHJva2U9IiMxZjdmYzYiLz4mI3hhOzxwYXRoIHN0cm9rZS1saW5lam9pbj0icm91bmQiIG9wYWNpdHk9IjEiIHN0cm9rZS1saW5lY2FwPSJyb3VuZCIgZmlsbD0ibm9uZSIgZD0iTTI0MjYuNDMrMTQwNC41OUMyNDI2LjQzKzE0MDQuNTkrMjQyMi40MysxNDYwLjErMjQyMi40MysxNDYwLjQ2QzI0MjIuNCsxNDYxLjMxKzI0MjEuNjErMTQ3Ny45NysyNDIxLjk5KzE0NzcuODdDMjQyNS4wMSsxNDc3LjA2KzI0MjguMDMrMTQ3NC4xKzI0MzEuNDkrMTQ3My4xN0MyNDM4LjY3KzE0NzEuMjUrMjQ0Ny4xMysxNDcyLjQrMjQ1NC40OCsxNDcxLjk4QzI0NjguMzUrMTQ3MS4xOCsyNDgyLjI2KzE0NjguNjIrMjQ5Ni4wOSsxNDY3LjE2QzI1MDQuODkrMTQ2Ni4yNCsyNTI0LjY3KzE0NjYuOTcrMjUzMy40NSsxNDY1LjgiIHN0cm9rZS13aWR0aD0iNSIgc3Ryb2tlPSIjMWY3ZmM2Ii8+JiN4YTs8cGF0aCBzdHJva2UtbGluZWpvaW49InJvdW5kIiBvcGFjaXR5PSIxIiBzdHJva2UtbGluZWNhcD0icm91bmQiIGZpbGw9Im5vbmUiIGQ9Ik0yNTM4LjIzKzEzODUuNTRDMjUzMy43NCsxMzgyLjk0KzI1MjIuNjIrMTM4NS4wMisyNTE3LjQ4KzEzODQuNzFDMjQ5OC44MSsxMzgzLjU4KzI0NzkuNzMrMTM4NS4yMysyNDYxLjErMTM4Ny4wM0MyNDU3Ljc4KzEzODcuMzUrMjQzOC4yMysxMzg1LjkrMjQzNy45NisxMzkwLjMyQzI0MzcuNjcrMTM5NS4xMSsyNDQ2LjI3KzE0MDIuNTErMjQ0OS41KzE0MDUuMTdDMjQ2NS40MysxNDE4LjMrMjQ5MC4yNysxNDI0LjA5KzI1MDkuNzMrMTQxNy45N0MyNTIwLjUzKzE0MTQuNTgrMjUyNS40NCsxNDEwLjQyKzI1MzIuNTMrMTQwMi4yMUMyNTMzLjU1KzE0MDEuMDMrMjU0My4zMSsxMzg3LjIyKzI1MzguMDUrMTM5Mi42NyIgc3Ryb2tlLXdpZHRoPSI1IiBzdHJva2U9IiMxZjdmYzYiLz4mI3hhOzxwYXRoIHN0cm9rZS1saW5lam9pbj0icm91bmQiIG9wYWNpdHk9IjEiIHN0cm9rZS1saW5lY2FwPSJyb3VuZCIgZmlsbD0ibm9uZSIgZD0iTTI1NDEuNzkrMTM5MC4yN0MyNTM4LjI5KzE0MDIuNDgrMjU0MC4xOCsxNDE5LjA5KzI1NDAuMzErMTQzMS43MkMyNTQwLjM2KzE0MzYuMzYrMjU0MC43OSsxNDQwLjk2KzI1NDAuNjMrMTQ0NS41OUMyNTQwLjYxKzE0NDYuMzgrMjUzOS41NSsxNDUxLjU1KzI1MzkuOTUrMTQ1MC44NiIgc3Ryb2tlLXdpZHRoPSI1IiBzdHJva2U9IiMxZjdmYzYiLz4mI3hhOzxwYXRoIHN0cm9rZS1saW5lam9pbj0icm91bmQiIG9wYWNpdHk9IjEiIHN0cm9rZS1saW5lY2FwPSJyb3VuZCIgZmlsbD0iI2ZmZmZmZiIgZD0iTTI0NzguOTIrMTM0NC40OUMyNDc4LjkyKzEzNDQuNDkrMjQ3OS4zMSsxMzUwLjQxKzI0NzkuNzkrMTM1My4zM0MyNDgwLjc0KzEzNTkuMDQrMjQ4MS41KzEzNjQuNzcrMjQ4Mi4yOSsxMzcwLjVDMjQ4Mi42MSsxMzcyLjg0KzI0ODIuOTMrMTM3NS4xOCsyNDgzLjI3KzEzNzcuNTFDMjQ4My4zNisxMzc4LjE1KzI0ODMuMjYrMTM3OS45OCsyNDgzLjU4KzEzNzkuNDJDMjQ4Ni43NysxMzczLjkrMjQ5Ny41MysxMzY1LjU3KzI1MDUuMTQrMTM2MC45QzI1MDcuOTQrMTM1OS4xOCsyNTEwLjgzKzEzNTcuNTgrMjUxMy42NysxMzU1LjkzQzI1MTMuNzIrMTM1NS45KzI1MTguODQrMTM1My4wMysyNTE4LjYyKzEzNTIuODFDMjUxNS4wMisxMzQ5LjMzKzI0OTguMTcrMTM0Mi45OCsyNDkxLjc0KzEzNDEuMzZDMjQ4OS4xNysxMzQwLjcyKzI0NzcuNDYrMTMzNy45MysyNDc4LjI4KzEzMzcuOTgiIHN0cm9rZS13aWR0aD0iNSIgc3Ryb2tlPSIjMWY3ZmM2Ii8+JiN4YTs8L2c+JiN4YTs8ZyBvcGFjaXR5PSIxIj4mI3hhOzxwYXRoIHN0cm9rZS1saW5lam9pbj0icm91bmQiIG9wYWNpdHk9IjEiIHN0cm9rZS1saW5lY2FwPSJyb3VuZCIgZmlsbD0ibm9uZSIgZD0iTTE4NTAuMysxMzg1LjY5QzE4NTAuMysxMzg1LjY5KzE4NDkuNDMrMTQwNi4zNSsxODQ4LjI1KzE0MTMuOThDMTg0NS45NysxNDI4Ljg1KzE4NDcuNTgrMTQ0My40MysxODQ2LjQ0KzE0NTguMzJDMTg0Ni4zOCsxNDU5LjAzKzE4NDcuNjcrMTQ4NC40OSsxODQ4LjMzKzE0ODQuNDlDMTg2MC4zNCsxNDg0LjQ5KzE4NjguMDgrMTQ4NC4zNisxODgwLjcrMTQ4NS4zM0MxODk2LjE1KzE0ODYuNTIrMTkxMS40MSsxNDg2LjEzKzE5MjcuMTUrMTQ4OC40M0MxOTQwLjY2KzE0OTAuNCsxOTY5Ljc5KzE0OTAuNysxOTY5Ljc5KzE0OTAuNDNDMTk2OS43OSsxNDY3Ljg4KzE5NzIuNzUrMTQ1Mi4xNCsxOTcyLjc1KzE0MjkuMDNDMTk3Mi43NSsxNDIxLjYxKzE5NzMuNDYrMTQxOC43NisxOTcyLjc1KzE0MTEuNThDMTk3Mi4zOSsxNDA4LjA1KzE5NzEuNjIrMTQwMy45OCsxOTcyLjE4KzEzOTQuNDEiIHN0cm9rZS13aWR0aD0iNSIgc3Ryb2tlPSIjMWY3ZmM2Ii8+JiN4YTs8cGF0aCBzdHJva2UtbGluZWpvaW49InJvdW5kIiBvcGFjaXR5PSIxIiBzdHJva2UtbGluZWNhcD0icm91bmQiIGZpbGw9Im5vbmUiIGQ9Ik0xODYwLjYxKzEzODMuMDlDMTg2MC42MSsxMzgzLjA5KzE4NjguNjUrMTM5OC45MisxODc2LjI0KzE0MDIuNzJDMTg5MC4zNysxNDA5Ljc4KzE5MTQuNDkrMTQxMy41MisxOTMwLjAzKzE0MTUuMDdDMTk0MS4xNCsxNDE2LjE4KzE5NjUuMDkrMTQwNy45MisxOTY2Ljc0KzEzOTQuNzJDMTk2Ny40MisxMzg5LjI4KzE5NjYuMDErMTM5MC41OSsxOTY2LjAxKzEzOTQuMzYiIHN0cm9rZS13aWR0aD0iNSIgc3Ryb2tlPSIjMWY3ZmM2Ii8+JiN4YTs8cGF0aCBzdHJva2UtbGluZWpvaW49InJvdW5kIiBvcGFjaXR5PSIxIiBzdHJva2UtbGluZWNhcD0icm91bmQiIGZpbGw9IiNmZmZmZmYiIGQ9Ik0xOTAzLjEzKzEzNjAuNTZDMTg5Ni41NisxMzY4LjA3KzE4OTIuMzErMTM3MC41NCsxODg1LjI0KzEzNzcuNjFDMTg4NS4yKzEzNzcuNjUrMTg3Ny4yNisxMzgyLjE3KzE4NzcuOTkrMTM4Mi40NEMxODg1LjI0KzEzODUuMTQrMTkwNC41NCsxMzg0Ljg3KzE5MDkuNTQrMTM4My43MkMxOTE1LjY0KzEzODIuMzErMTk0Mi42NysxMzg1LjMzKzE5NDIuMjIrMTM4NC40M0MxOTQwLjIxKzEzODAuNCsxOTMwLjAxKzEzNzEuMTYrMTkyNi4wMysxMzY2Ljc0QzE5MjAuODYrMTM2MC45OCsxOTE5LjExKzEzNTMuNjMrMTkxNS44NisxMzQ3LjExQzE5MTMuMDcrMTM0MS41NSsxOTA0LjU2KzEzNTguOTIrMTkwMy4xMysxMzYwLjU2WiIgc3Ryb2tlLXdpZHRoPSI1IiBzdHJva2U9IiMxZjdmYzYiLz4mI3hhOzwvZz4mI3hhOzxnIG9wYWNpdHk9IjEiPiYjeGE7PHBhdGggb3BhY2l0eT0iMSIgZmlsbD0ibm9uZSIgc3Ryb2tlLXdpZHRoPSI1IiBzdHJva2U9IiMxZjdmYzYiIGQ9Ik0yNTM2LjMyKzc2OS4zOTRDMjUzMC40Mys3NjMuOTEzKzI1MzIuMDUrODEwLjg0NCsyNTMxLjU1KzgxNy4yNEMyNTMwLjk4KzgyNC43MDgrMjUyOS4xMys4NDguOTExKzI1MjkuMTcrODQ4LjkxMUMyNTQzLjA2Kzg0OC45MTErMjU1NC41Nis4NTAuMjE3KzI1NzMuMys4NDkuNjgxQzI1ODMuMys4NDkuMzk1KzI1OTMuNzcrODUzLjc4NysyNTk3LjE3Kzg1MC4zOTZDMjYwNC43Nys4NDIuNzk2KzI2MDMuMzYrODI1LjY1OSsyNjA1LjQ1KzgxNS4xOTdDMjYwNi44Nys4MDguMTI3KzI2MTUuNjcrNzY3LjAyNSsyNjE1LjMyKzc2Ny4wNjdDMjYxMC42Kzc2Ny42MzkrMjYwNy41Kzc2Ny4xNDIrMjYwNC4wOSs3NjcuNTIxQzI1OTYuODYrNzY4LjMyNSsyNTg5LjIzKzc2Ny40NTgrMjU4MS45NSs3NjcuODYyQzI1NzQuMTErNzY4LjI5OCsyNTY2LjI5Kzc2OC43NjMrMjU1OC40Nis3NjkuMjI0QzI1NTAuNzQrNzY5LjY3OCsyNTM3LjcyKzc3MC42OTIrMjUzNi4zMis3NjkuMzk0WiIvPiYjeGE7PHBhdGggb3BhY2l0eT0iMSIgZmlsbD0ibm9uZSIgc3Ryb2tlLXdpZHRoPSI1IiBzdHJva2U9IiMxZjdmYzYiIGQ9Ik0yNTM0LjgyKzg0NS41OTNDMjUzNC44Mis4MzIuMzY4KzI1NjAuMTErNzYyLjIyKzI1NzYuMzYrNzczLjA1OEMyNTg4LjE0Kzc4MC45MTMrMjU5Ny40OCs4MzcuMTI4KzI1OTcuNDgrODQ4LjY1OCIvPiYjeGE7PHBhdGggb3BhY2l0eT0iMSIgZmlsbD0ibm9uZSIgc3Ryb2tlLXdpZHRoPSI1IiBzdHJva2U9IiMxZjdmYzYiIGQ9Ik0yNTUwLjI4Kzg1Ny40MjRDMjU1MC4yOCs4NTcuNDI0KzI1NDIuOTcrODkyLjUrMjU0NC4xNSs4OTIuNUMyNTQ1Ljk3Kzg5Mi41KzI1NTguMTQrODk2LjAwMSsyNTU5LjcyKzg5NS4xMzMiLz4mI3hhOzxwYXRoIG9wYWNpdHk9IjEiIGZpbGw9Im5vbmUiIHN0cm9rZS13aWR0aD0iNSIgc3Ryb2tlPSIjMWY3ZmM2IiBkPSJNMjU4MC41OSs4NTguMTA1QzI1NzguOTgrODU0Ljg3OSsyNTczLjEzKzg5MS4wODcrMjU3Ny4xOSs4OTIuNUMyNTgxLjg3Kzg5NC4xMzMrMjU5MC4xNis4OTYuMTM0KzI1OTIuNzMrODkyLjk4OSIvPiYjeGE7PHBhdGggb3BhY2l0eT0iMSIgZmlsbD0iI2ZmZmZmZiIgc3Ryb2tlLXdpZHRoPSI1IiBzdHJva2U9IiMxZjdmYzYiIGQ9Ik0yNTcxLjQrNzA2LjU2NUMyNTY4LjcxKzcwMi44MzQrMjU2Ni42NCs3NTAuNDg4KzI1NjcuNjUrNzQ5LjQ3M0MyNTc0LjUyKzc0Mi42MDUrMjU4OC43Nis3MzkuNTU5KzI1OTcuOTYrNzMzLjgwOEMyNjA4LjA0KzcyNy41MDYrMjYwNy41MSs3MzYuODg5KzI1ODkuNDUrNzE4LjgyNEMyNTg2LjEzKzcxNS41MTErMjU3Mi44NCs3MDguNTYzKzI1NzEuNCs3MDYuNTY1WiIvPiYjeGE7PC9nPiYjeGE7PGcgb3BhY2l0eT0iMSI+JiN4YTs8cGF0aCBvcGFjaXR5PSIxIiBmaWxsPSJub25lIiBzdHJva2UtbGluZWNhcD0ic3F1YXJlIiBzdHJva2Utd2lkdGg9IjUiIHN0cm9rZT0iI2YwOWIzYyIgZD0iTTEwNzUuODErODMzLjE4NEMxMDgxLjQ3KzgyMy40MDgrMTA3OS40NCs4MjUuNzA2KzEwODguNCs4MTAuMTk4QzEwODkuMjcrODA4LjY4NSsxMTAzLjczKzc4Ni41OTErMTEwNC41NSs3ODUuMDM0QzExMDYuMys3ODEuNjk5KzExMTcuMjgrNzcwLjA0OCsxMTI0LjM0Kzc2OS4xMzdDMTEyOC4wOCs3NjguNjU0KzExNjQuMjgrODIxLjExOSsxMTUxLjUrODAxLjA0OUMxMTM4LjcyKzc4MC45NzkrMTE3NS42Mis4MzQuNjE3KzExNzIuNDIrODM2Ljk0NkMxMTUzLjQxKzg1MC43NjUrMTE0My4xOSs4NTcuOTk4KzExMjcuNDkrODU2LjgwNUMxMTEzLjQrODU1LjczNCsxMDY4LjQyKzg0NS45MzUrMTA3NS44MSs4MzMuMTg0WiIvPiYjeGE7PHBhdGggb3BhY2l0eT0iMSIgZmlsbD0iI2ZmZmZmZiIgc3Ryb2tlLWxpbmVjYXA9InNxdWFyZSIgc3Ryb2tlLXdpZHRoPSI1IiBzdHJva2U9IiNmMDliM2MiIGQ9Ik0xMTIyLjEyKzcxNS43ODNDMTExOC4xOCs3MTUuMDM1KzExMDguMzErNzE3LjIxMisxMTAyLjA4KzcyNS43MTVDMTA5Mi4yKzczOS4xOTIrMTA5NS4yMSs3NjYuNTUzKzExMTguMjErNzY2Ljc3OEMxMTM4LjErNzY2Ljk3NCsxMTYwLjQ3KzcyOC45NSsxMTM4LjgxKzcxOC40NzFDMTEzMy45Nis3MTYuMTIzKzExMjQuOTcrNzE2LjMyMysxMTIyLjEyKzcxNS43ODNaIi8+JiN4YTs8L2c+JiN4YTs8ZyBvcGFjaXR5PSIxIj4mI3hhOzxwYXRoIG9wYWNpdHk9IjEiIGZpbGw9Im5vbmUiIHN0cm9rZS1saW5lY2FwPSJzcXVhcmUiIHN0cm9rZS13aWR0aD0iNSIgc3Ryb2tlPSIjZjA5YjNjIiBkPSJNMTQ4Ni4yOCs3NjAuMTI0QzE0NjIuODIrNzcwLjcxNisxNDYyLjE4Kzc3Ni4wOTcrMTQ1MC40OCs3OTguNTg1QzE0NDkuMTErODAxLjIyMSsxNDQzLjI2Kzg1MS43NysxNDQ2LjUxKzg1MS45NTFDMTQ2NS45Kzg1My4wMjcrMTQ3MS43NSs4NTIuNDQrMTQ4OS42Mis4NTIuMTAxQzE1MDMuMDIrODUxLjg0NysxNTM4LjM1Kzg1NC44NTkrMTUzNy41Kzg1MS4xMUMxNTMyLjI0KzgyOC4wNzMrMTUyOC45Nis4MDkuODQ0KzE1MjAuNzcrNzk1LjI1OUMxNTExLjE4Kzc3OC4xNysxNDg3LjA0Kzc1OS43NzcrMTQ4Ni4yOCs3NjAuMTI0WiIvPiYjeGE7PHBhdGggb3BhY2l0eT0iMSIgZmlsbD0iI2ZmZmZmZiIgc3Ryb2tlLWxpbmVjYXA9InNxdWFyZSIgc3Ryb2tlLXdpZHRoPSI1IiBzdHJva2U9IiNmMDliM2MiIGQ9Ik0xNDcxLjE4KzcwOC4yOTFDMTQ3Mi42NCs3MDcuOTU5KzE0NjcuNzgrNzQzLjk5NysxNDc0LjUyKzc0OC4yMjlDMTQ3Ni41Mys3NDkuNDk3KzE1MDAuNTkrNzUzLjczMysxNTAxLjMxKzc1Mi41ODRDMTUwNi4xOSs3NDQuODIyKzE1MDQuMTcrNzA5Ljk1OCsxNTAyLjY3KzcxMC4yOTlDMTQ5Ni4xOCs3MTEuNzgxKzE0NjEuNDQrNzEwLjUxMysxNDcxLjE4KzcwOC4yOTFaIi8+JiN4YTs8L2c+JiN4YTs8ZyBvcGFjaXR5PSIxIj4mI3hhOzxwYXRoIG9wYWNpdHk9IjEiIGZpbGw9Im5vbmUiIHN0cm9rZS1saW5lY2FwPSJzcXVhcmUiIHN0cm9rZS13aWR0aD0iNSIgc3Ryb2tlPSIjZjA5YjNjIiBkPSJNMTgzOS4wMSs4MjkuMDExQzE4NDIuMDUrODE0LjE3NCsxODQ3LjA0Kzc1NC43MDIrMTg3Ni4yNys3NjUuMTc3QzE4ODYuNjgrNzY4LjkwOCsxODkyLjQ0Kzc4OS42OTIrMTg5NC42Mis3OTguODExQzE4OTguMDQrODEzLjE0MisxOTA1LjYxKzg0MS4xMjgrMTg5Ny42Nys4NTQuODY2QzE4OTIuOTgrODYyLjk4NSsxODc3Ljc4Kzg1OC4zMDMrMTg2OS40OCs4NTguMjYzQzE4NjUuMSs4NTguMjQyKzE4MzYuNDIrODU4Ljg0NysxODM3LjQ2Kzg1OC4xNTVDMTg0MC40Mys4NTYuMTk5KzE4MzYuOTgrODM4Ljg5OCsxODM5LjAxKzgyOS4wMTFaIi8+JiN4YTs8cGF0aCBvcGFjaXR5PSIxIiBmaWxsPSIjZmZmZmZmIiBzdHJva2UtbGluZWNhcD0ic3F1YXJlIiBzdHJva2Utd2lkdGg9IjUiIHN0cm9rZT0iI2YwOWIzYyIgZD0iTTE4NjguMzQrNzA4LjI4OUwxODQ2Ljg4KzczNS4xOTZDMTg0Ni44OCs3MzUuMTk2KzE4NzQuODcrNzU2LjU2MysxODc1LjU4Kzc1NS42MjNDMTg4MC42OSs3NDguODcxKzE5MDAuNTcrNzMwLjkwMisxODk4LjIyKzcyOC44NTFDMTg4MC42OSs3MTMuNTM5KzE4NjguMzQrNzA4LjI4OSsxODY4LjM0KzcwOC4yODlaIi8+JiN4YTs8L2c+JiN4YTs8ZyBvcGFjaXR5PSIxIj4mI3hhOzxwYXRoIG9wYWNpdHk9IjEiIGZpbGw9Im5vbmUiIHN0cm9rZS1saW5lY2FwPSJzcXVhcmUiIHN0cm9rZS13aWR0aD0iNSIgc3Ryb2tlPSIjZjA5YjNjIiBkPSJNMjAwMS40Kzc2OC40NjlDMjAwOS4zOCs3NTcuMDg2KzIwMTguMTIrNzQ3LjkyMysyMDMzLjEzKzc1OS43OThDMjA0Mi42Mis3NjcuMzEzKzIwNDcuMTQrNzk3LjE4MisyMDQ4LjE0KzgwNy4wNUMyMDQ5LjY3KzgyMi4wNTErMjA1NS42NSs4NTkuNjY0KzIwNTUuMys4NTkuNDk0QzIwNDAuODErODUyLjM2MysxOTg1Ljg4Kzg1OS4xMysxOTg1LjkxKzg1OS4wNjJDMTk4Ny4zNis4NTYuMTIxKzE5ODUuOTcrNzkwLjQ4NysyMDAxLjQrNzY4LjQ2OVoiLz4mI3hhOzxwYXRoIG9wYWNpdHk9IjEiIGZpbGw9IiNmZmZmZmYiIHN0cm9rZS1saW5lY2FwPSJzcXVhcmUiIHN0cm9rZS13aWR0aD0iNSIgc3Ryb2tlPSIjZjA5YjNjIiBkPSJNMjAxOS44OCs3MDguNDA0QzIwMTIuODcrNzEzLjczKzE5OTcuMDYrNzQwLjI2NCsxOTk3LjIyKzc0MC4zNDFDMjAwNC44OCs3NDQuMTEyKzIwNDcuMzQrNzQyLjc4OSsyMDQ3LjMzKzc0Mi43NjRDMjA0Mi42NCs3MjguOTg5KzIwMjIuNDErNzA2LjQ4MisyMDE5Ljg4KzcwOC40MDRaIi8+JiN4YTs8L2c+JiN4YTs8ZyBvcGFjaXR5PSIxIj4mI3hhOzxwYXRoIHN0cm9rZS1saW5lam9pbj0iYmV2ZWwiIG9wYWNpdHk9IjEiIHN0cm9rZS1saW5lY2FwPSJzcXVhcmUiIGZpbGw9Im5vbmUiIGQ9Ik0xOTg4LjQ3KzU0Mi42NDdDMTk4OS43OSs1MjQuMTQ2KzE5OTEuMjcrNTA5LjU1NSsxOTk2LjU5KzQ5OC4yODJDMTk5OS44OSs0OTEuMjgxKzIwMDcuMzIrNDY3LjA1OCsyMDMwLjQ5KzQ2OC43OEMyMDQ5LjQrNDcwLjE4NisyMDUzLjQxKzQ5My4xODUrMjA1Ni42Mis1MDIuMDU4QzIwNTguMDMrNTA1Ljk1OCsyMDYxLjM0KzUyMy45NTcrMjA2MS41Mys1NDAuMzgyIiBzdHJva2Utd2lkdGg9IjUiIHN0cm9rZT0iIzVlNDU5MSIvPiYjeGE7PHBhdGggc3Ryb2tlLWxpbmVqb2luPSJiZXZlbCIgb3BhY2l0eT0iMSIgc3Ryb2tlLWxpbmVjYXA9InNxdWFyZSIgZmlsbD0iI2ZmZmZmZiIgZD0iTTIwNTAuMDErNDM1LjM1MUMyMDQ5LjA1KzQzOC4wNzErMjAwNy4zOSs0MzQuNzAxKzIwMDguNTYrNDM1LjM5MUMyMDEwLjY4KzQzNi42NjErMjAxNy4wOSs0MjMuMjkxKzIwMjAuMzErNDE4LjA3MUMyMDI3LjA1KzQwNy4xNDErMjAzMi4zNCszOTkuNzcxKzIwMzMuMzErNDAxLjQzMUMyMDM4LjQyKzQxMC4xOTErMjA1Mi40OCs0MjguMzgxKzIwNTAuMDErNDM1LjM1MVoiIHN0cm9rZS13aWR0aD0iNSIgc3Ryb2tlPSIjNWU0NTkxIi8+JiN4YTs8L2c+JiN4YTs8ZyBvcGFjaXR5PSIxIj4mI3hhOzxwYXRoIHN0cm9rZS1saW5lam9pbj0iYmV2ZWwiIG9wYWNpdHk9IjEiIHN0cm9rZS1saW5lY2FwPSJzcXVhcmUiIGZpbGw9Im5vbmUiIGQ9Ik0xNTg2LjkrNTQzLjQ4MUMxNTg4LjI5KzUyMy45MTUrMTU4OS44Nis1MDguNDg0KzE1OTUuNDgrNDk2LjU2M0MxNTk4Ljk3KzQ4OS4xNisxNjA2LjgzKzQ2My41NDMrMTYzMS4zMys0NjUuMzYzQzE2NTEuMzMrNDY2Ljg1KzE2NTUuNTgrNDkxLjE3MysxNjU4Ljk3KzUwMC41NTZDMTY2MC40Nis1MDQuNjgrMTY2My45Nis1MjMuNzE1KzE2NjQuMTYrNTQxLjA4NSIgc3Ryb2tlLXdpZHRoPSI1IiBzdHJva2U9IiM1ZTQ1OTEiLz4mI3hhOzxwYXRoIHN0cm9rZS1saW5lam9pbj0iYmV2ZWwiIG9wYWNpdHk9IjEiIHN0cm9rZS1saW5lY2FwPSJzcXVhcmUiIGZpbGw9IiNmZmZmZmYiIGQ9Ik0xNjI1Ljg5KzM5Ny45NDFDMTYyOC44NyszOTcuMjYrMTY0OS40NSs0MzYuMzY5KzE2NDkuNDErNDM0LjkzMkMxNjQ5LjM0KzQzMi4zMjErMTYzMy43Nys0MzQuMTcrMTYyNy4yOSs0MzQuMjUyQzE2MTMuNzErNDM0LjQyNCsxNjA0LjEyKzQzMy44NzMrMTYwNS4wNis0MzIuMDY1QzE2MDkuOTkrNDIyLjU0MysxNjE4LjI3KzM5OS42ODQrMTYyNS44OSszOTcuOTQxWiIgc3Ryb2tlLXdpZHRoPSI1IiBzdHJva2U9IiM1ZTQ1OTEiLz4mI3hhOzwvZz4mI3hhOzxnIG9wYWNpdHk9IjEiPiYjeGE7PHBhdGggc3Ryb2tlLWxpbmVqb2luPSJiZXZlbCIgb3BhY2l0eT0iMSIgc3Ryb2tlLWxpbmVjYXA9InNxdWFyZSIgZmlsbD0ibm9uZSIgZD0iTTE4NjYuNzErNTQzLjQ4MkMxODY4LjErNTIzLjkxNisxODY5LjY3KzUwOC40ODUrMTg3NS4yOSs0OTYuNTY0QzE4NzguNzgrNDg5LjE2MSsxODg2LjY0KzQ2My41NDQrMTkxMS4xNCs0NjUuMzY0QzE5MzEuMTQrNDY2Ljg1MSsxOTM1LjM5KzQ5MS4xNzQrMTkzOC43OCs1MDAuNTU3QzE5NDAuMjcrNTA0LjY4MSsxOTQzLjc3KzUyMy43MTYrMTk0My45Nys1NDEuMDg2IiBzdHJva2Utd2lkdGg9IjUiIHN0cm9rZT0iIzVlNDU5MSIvPiYjeGE7PHBhdGggc3Ryb2tlLWxpbmVqb2luPSJiZXZlbCIgb3BhY2l0eT0iMSIgc3Ryb2tlLWxpbmVjYXA9InNxdWFyZSIgZmlsbD0iI2ZmZmZmZiIgZD0iTTE5MDUuNys0MzQuOTYzQzE5MDguNjgrNDM1LjY0NCsxOTI5LjI2KzM5Ni41MzQrMTkyOS4yMiszOTcuOTcxQzE5MjkuMTUrNDAwLjU4MysxOTEzLjU4KzM5OC43MzQrMTkwNy4xKzM5OC42NTJDMTg5My41MiszOTguNDc5KzE4ODMuOTMrMzk5LjAzMSsxODg0Ljg3KzQwMC44MzhDMTg4OS44KzQxMC4zNjErMTg5OC4wOCs0MzMuMjIrMTkwNS43KzQzNC45NjNaIiBzdHJva2Utd2lkdGg9IjUiIHN0cm9rZT0iIzVlNDU5MSIvPiYjeGE7PC9nPiYjeGE7PGcgb3BhY2l0eT0iMSI+JiN4YTs8cGF0aCBvcGFjaXR5PSIxIiBmaWxsPSJub25lIiBzdHJva2Utd2lkdGg9IjUiIHN0cm9rZT0iIzdmYzhhOCIgZD0iTTExNzQuNzYrMTExOC42QzExNzYuNjkrMTExNS43OSsxMTYxLjQyKzExMzYuMzQrMTE1MS44MisxMTUwLjU2QzExNDMuNjgrMTE2Mi42NSsxMTM0LjE2KzEyMDEuNTQrMTEzMi4wNisxMjAxLjE5QzExMzAuNTcrMTIwMC45NSsxMTIxLjIxKzExNjcuMjgrMTExMi4xNSsxMTU0Ljk0QzEwOTkuNjYrMTEzNy45MysxMDc3LjYyKzExMDcuNzUrMTA3OC4yKzExMTEuM0MxMDc5LjA4KzExMTYuODErMTE2NC43MSsxMTMzLjIzKzExNzQuNzYrMTExOC42WiIvPiYjeGE7PHBhdGggb3BhY2l0eT0iMSIgZmlsbD0iI2ZmZmZmZiIgc3Ryb2tlLXdpZHRoPSI1IiBzdHJva2U9IiM3ZmM4YTgiIGQ9Ik0xMTI5Ljg2KzEwNTguMjJDMTEzMC4wNSsxMDU4Ljc2KzExMzcuMzIrMTA0OS44KzExNDguNzgrMTA2Mi45QzExNTYuNzkrMTA3Mi4wNSsxMTU5LjY3KzEwODkuNjErMTE0Ni4xKzEwOTYuMzFDMTEzMy4yOSsxMTAyLjYzKzExMDYuNzYrMTA4NS42NSsxMTEyLjQzKzEwNzEuMTJDMTExNC44MSsxMDY1LjAyKzExMjcuNjMrMTA1MS45MysxMTI5Ljg2KzEwNTguMjJaIi8+JiN4YTs8L2c+JiN4YTs8ZyBvcGFjaXR5PSIxIj4mI3hhOzxwYXRoIG9wYWNpdHk9IjEiIGZpbGw9Im5vbmUiIHN0cm9rZS13aWR0aD0iNSIgc3Ryb2tlPSIjN2ZjOGE4IiBkPSJNMTQ0OS44OCsxMTIzLjA3QzE0NDgrMTEyMC4zNCsxNDYyLjg1KzExNDAuMysxNDcyLjE3KzExNTQuMTNDMTQ4MC4wOCsxMTY1Ljg3KzE0ODkuMzMrMTIwMy42NisxNDkxLjM3KzEyMDMuMzNDMTQ5Mi44MisxMjAzLjA5KzE1MDEuOTIrMTE3MC4zNysxNTEwLjcyKzExNTguMzlDMTUyMi44NSsxMTQxLjg2KzE1NDQuMjcrMTExMi41MysxNTQzLjcxKzExMTUuOTdDMTU0Mi44NSsxMTIxLjMzKzE0NTkuNjUrMTEzNy4yOSsxNDQ5Ljg4KzExMjMuMDdaIi8+JiN4YTs8cGF0aCBvcGFjaXR5PSIxIiBmaWxsPSIjZmZmZmZmIiBzdHJva2UtbGluZWNhcD0ic3F1YXJlIiBzdHJva2Utd2lkdGg9IjUiIHN0cm9rZT0iIzdmYzhhOCIgZD0iTTE0ODQuNTIrMTA1My42QzE0ODUuOCsxMDUzLjMrMTQ4MS41NCsxMDg0LjkyKzE0ODcuNDUrMTA4OC42M0MxNDg5LjIyKzEwODkuNzQrMTUxMC4zMisxMDkzLjQ2KzE1MTAuOTUrMTA5Mi40NUMxNTE1LjIzKzEwODUuNjQrMTUxMy40NisxMDU1LjA2KzE1MTIuMTUrMTA1NS4zNkMxNTA2LjQ1KzEwNTYuNjYrMTQ3NS45OCsxMDU1LjU1KzE0ODQuNTIrMTA1My42WiIvPiYjeGE7PC9nPiYjeGE7PGcgb3BhY2l0eT0iMSI+JiN4YTs8cGF0aCBvcGFjaXR5PSIxIiBmaWxsPSJub25lIiBzdHJva2Utd2lkdGg9IjUiIHN0cm9rZT0iIzdmYzhhOCIgZD0iTTE4MzcuOTMrMTExNC40N0MxODM2LjA1KzExMTEuNzQrMTg1MC45KzExMzEuNysxODYwLjIyKzExNDUuNTNDMTg2OC4xMysxMTU3LjI2KzE4NzcuMzgrMTE5NS4wNisxODc5LjQyKzExOTQuNzJDMTg4MC44NysxMTk0LjQ5KzE4ODkuOTcrMTE2MS43NysxODk4Ljc3KzExNDkuNzhDMTkxMC45KzExMzMuMjUrMTkzMi4zMisxMTAzLjkyKzE5MzEuNzcrMTEwNy4zN0MxOTMwLjkrMTExMi43MisxODQ3LjcrMTEyOC42OCsxODM3LjkzKzExMTQuNDdaIi8+JiN4YTs8cGF0aCBvcGFjaXR5PSIxIiBmaWxsPSIjZmZmZmZmIiBzdHJva2UtbGluZWNhcD0ic3F1YXJlIiBzdHJva2Utd2lkdGg9IjUiIHN0cm9rZT0iIzdmYzhhOCIgZD0iTTE4ODIuMjYrMTA1MC41TDE4NjIuODUrMTA3NC44M0MxODYyLjg1KzEwNzQuODMrMTg4OC4xNisxMDk0LjE1KzE4ODguOCsxMDkzLjNDMTg5My40MisxMDg3LjIrMTkxMS40KzEwNzAuOTUrMTkwOS4yOCsxMDY5LjA5QzE4OTMuNDIrMTA1NS4yNSsxODgyLjI2KzEwNTAuNSsxODgyLjI2KzEwNTAuNVoiLz4mI3hhOzwvZz4mI3hhOzxnIG9wYWNpdHk9IjEiPiYjeGE7PHBhdGggb3BhY2l0eT0iMSIgZmlsbD0iI2ZmZmZmZiIgc3Ryb2tlLWxpbmVjYXA9InNxdWFyZSIgc3Ryb2tlLXdpZHRoPSI1IiBzdHJva2U9IiM3ZmM4YTgiIGQ9Ik0yMDEzLjIzKzEwNTAuMTJDMjAwNi4yMisxMDU1LjQ1KzE5OTAuNCsxMDgxLjk4KzE5OTAuNTYrMTA4Mi4wNkMxOTk4LjIyKzEwODUuODMrMjA0MC42OCsxMDg0LjUxKzIwNDAuNjcrMTA4NC40OEMyMDM1Ljk5KzEwNzAuNzErMjAxNS43NisxMDQ4LjIrMjAxMy4yMysxMDUwLjEyWiIvPiYjeGE7PHBhdGggb3BhY2l0eT0iMSIgZmlsbD0ibm9uZSIgc3Ryb2tlLXdpZHRoPSI1IiBzdHJva2U9IiM3ZmM4YTgiIGQ9Ik0xOTc1LjE2KzExMTYuMDVDMTk3My4yOCsxMTEzLjMyKzE5ODguMTIrMTEzMy4yOCsxOTk3LjQ1KzExNDcuMTFDMjAwNS4zNisxMTU4Ljg1KzIwMTQuNjErMTE5Ni42NCsyMDE2LjY1KzExOTYuM0MyMDE4LjErMTE5Ni4wNysyMDI3LjIrMTE2My4zNSsyMDM2KzExNTEuMzZDMjA0OC4xMysxMTM0LjgzKzIwNjkuNTUrMTEwNS41KzIwNjguOTkrMTEwOC45NUMyMDY4LjEzKzExMTQuMzErMTk4NC45MysxMTMwLjI2KzE5NzUuMTYrMTExNi4wNVoiLz4mI3hhOzwvZz4mI3hhOzxnIG9wYWNpdHk9IjEiPiYjeGE7PHBhdGggb3BhY2l0eT0iMSIgZmlsbD0ibm9uZSIgc3Ryb2tlLWxpbmVjYXA9InNxdWFyZSIgc3Ryb2tlLXdpZHRoPSI1IiBzdHJva2U9IiMyMzVjODMiIGQ9Ik0yNTQyLjM2KzEwODcuNTRDMjU0Mi4zNisxMDg3LjU0KzI1NDEuNSsxMDg4Ljc1KzI1NDEuNCsxMDg5LjQ2QzI1NDAuNDgrMTA5NS44NysyNTQwLjM0KzExMDIuNzYrMjU0MC4xMisxMTA5LjI2QzI1MzkuNjcrMTEyMi45NCsyNTM5LjkrMTEzNi44MisyNTM4Ljg1KzExNTAuNDZDMjUzOC4zMysxMTU3LjEyKzI1MzguNTMrMTE2NC41KzI1MzguNTMrMTE3MS4yMUMyNTM4LjUzKzExNzEuMjkrMjUzOC41MysxMTczLjQ1KzI1MzguNTMrMTE3My40NUMyNTQ3LjgzKzExNzMuNDUrMjU3MC45KzExNjQuNjkrMjU4Mi42KzExNjMuMjNDMjU4OC43OSsxMTYyLjQ2KzI1OTUuNTMrMTE2Mi4yNysyNjAxLjc2KzExNjIuMjdDMjYwMi4xOCsxMTYyLjI3KzI2MDcuOTcrMTE2Mi40NSsyNjA2LjIzKzExNjQuMTlDMjYwNi4wNysxMTY0LjM1KzI2MDQuMTQrMTE2NS45NisyNjA0LjYzKzExNjUuNDdDMjYwOC4wMysxMTYyLjA2KzI2MDYuNDIrMTE0NC4zOCsyNjA2Ljg3KzExMzkuOTJDMjYwOC4wNSsxMTI4LjEyKzI2MTYuNzcrMTA5MS41KzI2MTguNjgrMTA4Ni45MUMyNjIxLjA2KzEwODEuMjIrMjYyMS43MSsxMDgzLjEzKzI2MjEuMjgrMTA3NC41MSIvPiYjeGE7PHBhdGggb3BhY2l0eT0iMSIgZmlsbD0ibm9uZSIgc3Ryb2tlLWxpbmVjYXA9InNxdWFyZSIgc3Ryb2tlLXdpZHRoPSI1IiBzdHJva2U9IiMyMzVjODMiIGQ9Ik0yNTUzLjYyKzExNzkuNDRDMjU1My42MisxMTcyLjgzKzI1NDkuNzQrMTIyMC4wNysyNTUwLjg0KzEyMTkuODZDMjU1Ni4wNSsxMjE4LjgxKzI1NjAuODUrMTIyMC4yMSsyNTY1LjE2KzEyMTkuNSIvPiYjeGE7PHBhdGggb3BhY2l0eT0iMSIgZmlsbD0ibm9uZSIgc3Ryb2tlLWxpbmVjYXA9InNxdWFyZSIgc3Ryb2tlLXdpZHRoPSI1IiBzdHJva2U9IiMyMzVjODMiIGQ9Ik0yNTgxLjc2KzExNzUuMjRDMjU4MS43NisxMTc0Ljk1KzI1ODAuOTYrMTE4Ny4wMisyNTgwLjQ0KzExOTEuMzRDMjU3OS4zOSsxMjAwLjErMjU3Ny4xMysxMjE3LjM1KzI1NzcuMTMrMTIxNy4zNUMyNTc3LjEzKzEyMTcuMzUrMjU4OC4zOCsxMjE3Ljg5KzI1OTEuNDQrMTIxNy44OSIvPiYjeGE7PHBhdGggb3BhY2l0eT0iMSIgZmlsbD0ibm9uZSIgc3Ryb2tlLWxpbmVjYXA9InNxdWFyZSIgc3Ryb2tlLXdpZHRoPSI1IiBzdHJva2U9IiMyMzVjODMiIGQ9Ik0yNTQxLjQrMTA4Ni41OUMyNTQxLjQrMTA4Ni41OSsyNTQyLjMrMTA4NisyNTQyLjY4KzEwODUuNjNDMjU0NS4zNCsxMDgyLjk3KzI1NTMuMDMrMTA4Ny42KzI1NTUuNDUrMTA5MC40MkMyNTYyLjcrMTA5OC44NysyNTY3LjIrMTEwOS41MysyNTczLjAyKzExMTguODRDMjU3Ni44MSsxMTI0LjkrMjU3NS44MisxMTM3Ljc5KzI1NzYuODUrMTE0NS4wM0MyNTc3LjAyKzExNDYuMTkrMjU3NS45OSsxMTQ4LjU0KzI1NzcuMTcrMTE0OC41NEMyNTc3LjczKzExNDguNTQrMjU3OS4wNSsxMTM2LjI0KzI1NzkuMDgrMTEzNi4wOUMyNTgwLjkzKzExMjYuODQrMjU4Mi40MSsxMTE4LjM2KzI1ODcuMDcrMTEwOS45QzI1OTIuODgrMTA5OS4zNCsyNTk3LjUyKzEwODYuODgrMjYwNi41NSsxMDc4LjZDMjYxMS42KzEwNzMuOTcrMjYxOS4xMisxMDc1LjM3KzI2MTguOTErMTA3Ni4yNCIvPiYjeGE7PHBhdGggb3BhY2l0eT0iMSIgZmlsbD0iI2ZmZmZmZiIgc3Ryb2tlLWxpbmVjYXA9InNxdWFyZSIgc3Ryb2tlLXdpZHRoPSI1IiBzdHJva2U9IiMyMzVjODMiIGQ9Ik0yNTU5LjQxKzEwMjIuMTNDMjU1OS40MSsxMDIyLjEzKzI1NTguNDMrMTA0MC41MysyNTU4LjEzKzEwNDIuODNDMjU1Ny4xNisxMDUwLjI0KzI1NTcuMzkrMTA2Ny4wMisyNTU4LjM1KzEwNjYuNTRDMjU1OS44OCsxMDY1Ljc3KzI1NzMuNDMrMTA1NS43NisyNTczLjQzKzEwNTUuNzZDMjU3My40MysxMDU1Ljc2KzI1OTUuMTQrMTA0Mi4wNCsyNTk0Ljc1KzEwNDAuODhDMjU5My4zMysxMDM2LjYxKzI1NTkuNDErMTAyMi4xMysyNTU5LjQxKzEwMjIuMTNaIi8+JiN4YTs8cGF0aCBvcGFjaXR5PSIxIiBmaWxsPSJub25lIiBzdHJva2UtbGluZWNhcD0ic3F1YXJlIiBzdHJva2Utd2lkdGg9IjUiIHN0cm9rZT0iIzIzNWM4MyIgZD0iTTI2MjkuNjgrMTA2Ni45N0MyNjI1LjU2KzEwNjcuNjMrMjYyMS45NCsxMDY4LjMxKzI2MTguNzYrMTA2OC45OUMyNTk5LjE0KzEwNzMuMisyNjAxLjIzKzEwNzQuMDgrMjYwMS4yMysxMDc0LjA4QzI2MDEuMjMrMTA3NC4wOCsyNTgzLjQ2KzEwODMuNDcrMjU2Ni45NysxMDgxLjQxQzI1NDQuNTUrMTA3OC42MSsyNTM2LjIyKzEwODMuNDIrMjUyOS4yNSsxMDg5LjgxIi8+JiN4YTs8L2c+JiN4YTs8ZyBvcGFjaXR5PSIwLjgwMTkxNyI+JiN4YTs8cGF0aCBzdHJva2UtbGluZWpvaW49ImJldmVsIiBvcGFjaXR5PSIxIiBzdHJva2UtbGluZWNhcD0ic3F1YXJlIiBmaWxsPSIjZmZmZmZmIiBkPSJNMTUwMi4zKzM5OC4yNzJDMTQ5OS4zMSszOTQuNzU4KzE0NzkuOSs0MTkuNjA2KzE0ODEuMjUrNDIwLjgxOUMxNDgzLjQ4KzQyMi44MDkrMTQ4Ni40NCs0MjUuMTg1KzE0ODguNTErNDI3LjQ4OEMxNTAyLjM1KzQ0Mi44NTcrMTQ5Ni41NCs0NDIuMTg4KzE1MTIuNDIrNDI4LjU2NEMxNTEzLjkrNDI3LjI5NisxNTIzLjAzKzQyMi4zNzErMTUyMi41OSs0MjAuMTQyQzE1MjAuNTErNDA5Ljc2MisxNTA0Ljg1KzQwMS4yNTQrMTUwMi4zKzM5OC4yNzJaIiBzdHJva2Utd2lkdGg9IjUiIHN0cm9rZT0iIzVlNDU5MSIvPiYjeGE7PHBhdGggc3Ryb2tlLWxpbmVqb2luPSJiZXZlbCIgb3BhY2l0eT0iMSIgc3Ryb2tlLWxpbmVjYXA9InNxdWFyZSIgZmlsbD0ibm9uZSIgZD0iTTE0NjAuMDcrNTQzLjIwOEMxNDYxLjQ3KzUyMy42NDMrMTQ2My4wMys1MDguMjEyKzE0NjguNjUrNDk2LjI5MUMxNDcyLjE0KzQ4OC44ODcrMTQ4MC4wMSs0NjMuMjcrMTUwNC41KzQ2NS4wOTFDMTUyNC41KzQ2Ni41NzgrMTUyOC43NSs0OTAuOSsxNTMyLjE0KzUwMC4yODRDMTUzMy42Mys1MDQuNDA4KzE1MzcuMTMrNTIzLjQ0MysxNTM3LjMzKzU0MC44MTIiIHN0cm9rZS13aWR0aD0iNSIgc3Ryb2tlPSIjNWU0NTkxIi8+JiN4YTs8L2c+JiN4YTs8ZyBvcGFjaXR5PSIxIj4mI3hhOzxwYXRoIHN0cm9rZS1saW5lam9pbj0iYmV2ZWwiIG9wYWNpdHk9IjEiIHN0cm9rZS1saW5lY2FwPSJzcXVhcmUiIGZpbGw9IiNmZmZmZmYiIGQ9Ik0xMzY1LjkrMzk4LjI1NEMxMzY4LjU1KzM5OC45NjkrMTM1NS4yNSs0MzUuNDk4KzEzNTguMys0MzQuODc3QzEzNjUuOCs0MzMuMzU0KzEzOTMuMzgrNDQyLjQ0NisxMzkzLjMxKzQ0Mi4wOTRDMTM5MS41KzQzMy4xNDgrMTM5My4wNSs0MjMuMzA3KzEzOTQuMDcrNDE2LjE2NUMxMzk0LjQ5KzQxMy4yNTgrMTM5Ni45MSszOTguOTg1KzEzOTUuMjkrMzk5LjMwN0MxMzg1LjgzKzQwMS4xODcrMTM2MC4yNyszOTYuNzM3KzEzNjUuOSszOTguMjU0WiIgc3Ryb2tlLXdpZHRoPSI1IiBzdHJva2U9IiM1ZTQ1OTEiLz4mI3hhOzxwYXRoIHN0cm9rZS1saW5lam9pbj0iYmV2ZWwiIG9wYWNpdHk9IjEiIHN0cm9rZS1saW5lY2FwPSJzcXVhcmUiIGZpbGw9Im5vbmUiIGQ9Ik0xMzM1LjkzKzU0My44ODlDMTMzNy4zMys1MjQuMzIzKzEzMzguODkrNTA4Ljg5MisxMzQ0LjUyKzQ5Ni45NzJDMTM0OC4wMSs0ODkuNTY4KzEzNTUuODcrNDYzLjk1MSsxMzgwLjM2KzQ2NS43NzJDMTQwMC4zNys0NjcuMjU5KzE0MDQuNjErNDkxLjU4MSsxNDA4KzUwMC45NjVDMTQwOS41KzUwNS4wODkrMTQxMys1MjQuMTI0KzE0MTMuMis1NDEuNDkzIiBzdHJva2Utd2lkdGg9IjUiIHN0cm9rZT0iIzVlNDU5MSIvPiYjeGE7PC9nPiYjeGE7PGcgb3BhY2l0eT0iMSI+JiN4YTs8cGF0aCBvcGFjaXR5PSIxIiBmaWxsPSJub25lIiBzdHJva2Utd2lkdGg9IjUiIHN0cm9rZT0iIzFmN2ZjNiIgZD0iTTIxMDAuNDErMTM4OS43QzIwOTkuMTYrMTQwMysyMDg4LjAyKzE0ODEuMDQrMjA5MC43OSsxNDgyLjExQzIxMDYuMSsxNDg4LjAzKzIxMzkuNzErMTQ4My45KzIxNTEuODErMTQ4My4xMUMyMTY1LjgzKzE0ODIuMisyMTg3LjY4KzE0ODMuNjQrMjE4Ny42OCsxNDgyLjU2QzIxODcuNjgrMTQ2Ni41MisyMTg4Ljk5KzEzOTguMDUrMjE5MC43OCsxMzg0LjU5QzIxOTAuNzgrMTM4NC41OSsyMTc2LjQzKzE0MDIuNysyMTY3LjI5KzE0MDYuNjJDMjE1NC41NCsxNDEyLjA5KzIxNTEuNzcrMTQxMi4yOSsyMTM5LjYxKzE0MTMuNzNDMjEzMC4zMisxNDE0LjgyKzIxMTgrMTQxNC42KzIxMTEuMDIrMTQwOS4xN0MyMTAxLjQxKzE0MDEuNysyMTAwLjk5KzEzODMuNjErMjEwMC40MSsxMzg5LjdaIi8+JiN4YTs8cGF0aCBvcGFjaXR5PSIxIiBmaWxsPSIjZmZmZmZmIiBzdHJva2Utd2lkdGg9IjUiIHN0cm9rZT0iIzFmN2ZjNiIgZD0iTTIxMjguMTMrMTMzOS45N0MyMTE2LjY2KzEzMzEuMTErMjEyMi4yOSsxMzUzLjc4KzIxMTkuNzYrMTM2OS44NEMyMTE5LjY4KzEzNzAuMzErMjExOS41KzEzOTYuOTcrMjEyMC42NysxMzk2Ljk3QzIxMjcuMTgrMTM5Ni45NysyMTU4LjI3KzEzODQuNTcrMjE2Ni4wMSsxMzgwLjc2QzIxOTYuMDYrMTM2Ni4wMSsyMTQyLjc2KzEzNTEuMjcrMjEyOC4xMysxMzM5Ljk3WiIvPiYjeGE7PC9nPiYjeGE7PGcgb3BhY2l0eT0iMSI+JiN4YTs8cGF0aCBvcGFjaXR5PSIxIiBmaWxsPSJub25lIiBzdHJva2Utd2lkdGg9IjUiIHN0cm9rZT0iIzFmN2ZjNiIgZD0iTTEwNzYuNTMrMTM5NC45N0MxMDc1LjI4KzE0MDguMjcrMTA2NC4xMysxNDg2LjMyKzEwNjYuOSsxNDg3LjM5QzEwODIuMjErMTQ5My4zKzExMTUuODIrMTQ4OS4xNysxMTI3LjkyKzE0ODguMzhDMTE0MS45NCsxNDg3LjQ3KzExNjMuOCsxNDg4LjkyKzExNjMuOCsxNDg3Ljg0QzExNjMuOCsxNDcxLjc5KzExNjUuMSsxNDAzLjMyKzExNjYuODkrMTM4OS44NkMxMTY2Ljg5KzEzODkuODYrMTE1Mi41NCsxNDA3Ljk4KzExNDMuNCsxNDExLjlDMTEzMC42NSsxNDE3LjM2KzExMjcuODkrMTQxNy41NysxMTE1LjcyKzE0MTlDMTEwNi40MysxNDIwLjA5KzEwOTQuMTErMTQxOS44OCsxMDg3LjEzKzE0MTQuNDVDMTA3Ny41MisxNDA2Ljk4KzEwNzcuMSsxMzg4Ljg4KzEwNzYuNTMrMTM5NC45N1oiLz4mI3hhOzxwYXRoIG9wYWNpdHk9IjEiIGZpbGw9IiNmZmZmZmYiIHN0cm9rZS13aWR0aD0iNSIgc3Ryb2tlPSIjMWY3ZmM2IiBkPSJNMTExNy44MSsxMzQ3LjI0QzExMTguMzgrMTM0Ny4zMSsxMTI2Ljc0KzEzNDYuMzcrMTEzOC4yKzEzNTkuNDhDMTE0Ni4yKzEzNjguNjMrMTEzOC43MisxMzg0LjE5KzExMjUuMTUrMTM5MC44OUMxMTEyLjM0KzEzOTcuMjErMTA5My4yOSsxMzgyLjc3KzEwOTQuNTUrMTM2Ny4yM0MxMDk1Ljc4KzEzNTIuMTMrMTExMS42OSsxMzQ2LjQyKzExMTcuODErMTM0Ny4yNFoiLz4mI3hhOzwvZz4mI3hhOzxnIG9wYWNpdHk9IjEiPiYjeGE7PHBhdGggb3BhY2l0eT0iMSIgZmlsbD0ibm9uZSIgc3Ryb2tlLXdpZHRoPSI1IiBzdHJva2U9IiM1ZTQ1OTEiIGQ9Ik0xMDYxLjE1KzU0MS43MDVDMTA2MS41Mys1NDEuMDQrMTA2MS4xNSs1MTkuNTEyKzEwNjAuNDcrNTExLjE5NkMxMDU5LjQ0KzQ5OC4zOTIrMTA1NS4yMys0NDUuNzA0KzEwNzYuMDMrNDQzLjY1M0MxMDkxLjg1KzQ0Mi4wOTMrMTA5Mi4wMys0NTMuNzE0KzEwOTQuNjUrNDU5LjM3QzEwOTYuNTUrNDYzLjQ4KzEwOTYuMDcrNDc3Ljg3OCsxMDk5LjQxKzQ3NC44MThDMTEwMS45Mys0NzIuNTEzKzExMDMuNzcrNDYyLjE2NSsxMTAzLjk0KzQ1OC43MjVDMTEwNC42Mis0NDUuNDczKzExMTIuMDUrNDQzLjc5KzExMTguNDUrNDQ1Ljk4MUMxMTIxLjgxKzQ0Ny4xMysxMTI0LjI4KzQ3Mi4zMisxMTI2LjMxKzQ3MS43MzNDMTEyNy43NSs0NzEuMzE4KzExMjguODQrNDYwLjY3OSsxMTI5LjI0KzQ1OS4zNUMxMTMxLjYxKzQ1MS4zNysxMTM2LjExKzQ0Ni4xNDgrMTE0My4xKzQ0Mi4zNTlDMTE0OS45KzQzOC42NzErMTE1My4xMSs0NTAuMzcyKzExNTQuNDYrNDU1LjA5OUMxMTU1LjI0KzQ1Ny44MjYrMTE1NS4zNCs0NzAuMDAxKzExNTQuNzUrNDY4LjIwMkMxMTUzLjgyKzQ2NS4zOTErMTE2NC41OCs0MzkuNzA5KzExNzMuMzErNDQxLjMwM0MxMTg5LjgrNDQ0LjMxNSsxMTg4LjU0KzQ2Ny4xMTMrMTE5My40MSs0ODguNjE2QzExOTQuNjYrNDk0LjEzMSsxMTkyLjk0KzU0MS42MSsxMTk2LjkrNTQ1LjQ3NSIvPiYjeGE7PHBhdGggb3BhY2l0eT0iMSIgZmlsbD0iI2ZmZmZmZiIgc3Ryb2tlLXdpZHRoPSI1IiBzdHJva2U9IiM1ZTQ1OTEiIGQ9Ik0xMTc2LjQ3KzM5OS40MTdDMTE3Ny4yMiszOTkuNjMxKzExNzUuNjYrMzk4LjgyNysxMTczLjkxKzQwMS4yMTZDMTE2OC44KzQwOC4xOTUrMTE1Ny4wMis0MjUuNzgyKzExNTkuMDQrNDI2LjU1N0MxMTY0LjU2KzQyOC42NjcrMTE5Mi44NSs0MjYuOTMxKzExOTIuOSs0MjUuNzQxQzExOTMuMDQrNDIyLjYzMysxMTY3Ljc5KzM5Ni45MzYrMTE3Ni40NyszOTkuNDE3WiIvPiYjeGE7PHBhdGggb3BhY2l0eT0iMSIgZmlsbD0iI2ZmZmZmZiIgc3Ryb2tlLXdpZHRoPSI1IiBzdHJva2U9IiM1ZTQ1OTEiIGQ9Ik0xMTExLjUyKzM5Ny45MzJDMTExMS41MiszOTcuOTMyKzExMDEuNDMrNDA5LjE0MSsxMDk5LjAzKzQxNS40MTVDMTA5OC45Mis0MTUuNzA4KzExMTEuNzYrNDMwLjUzOSsxMTEyLjkxKzQzMS43ODhMMTEyNS42OCs0MTUuMTM3QzExMTguNzQrMzk5LjA0MisxMTExLjUyKzM5Ny45MzIrMTExMS41MiszOTcuOTMyWiIvPiYjeGE7PHBhdGggb3BhY2l0eT0iMSIgZmlsbD0iI2ZmZmZmZiIgc3Ryb2tlLXdpZHRoPSI1IiBzdHJva2U9IiM1ZTQ1OTEiIGQ9Ik0xMTMzLjI0KzM5OC44MDNDMTEzMC41MSs0MDEuMzA2KzExMzIuMDUrNDI3Ljg5NCsxMTM1LjY5KzQyOC4wNTJDMTEzOS4yOSs0MjguMjA5KzExNDYuODQrNDI2LjYyOCsxMTUwLjYxKzQyNS41NUMxMTUyLjY5KzQyNC45NTUrMTE0OS44MiszOTkuMTUzKzExNDkuMzcrMzk5LjIyQzExNDEuNDgrNDAwLjQwNSsxMTM0LjI3KzM5Ny44NjQrMTEzMy4yNCszOTguODAzWiIvPiYjeGE7PHBhdGggb3BhY2l0eT0iMSIgZmlsbD0iI2ZmZmZmZiIgc3Ryb2tlLXdpZHRoPSI1IiBzdHJva2U9IiM1ZTQ1OTEiIGQ9Ik0xMDcyLjY2KzM5OS45MTNDMTA3My4wNiszOTkuOTY3KzEwNzkuNyszOTQuMzg4KzEwODguODYrNDA5LjE5MkMxMDk1LjMxKzQxOS42MSsxMDg3LjQxKzQyNS45NzErMTA3Ny44NCs0MzAuNjk0QzEwNjguODErNDM1LjE1KzEwNTUuMzgrNDI0Ljk2OSsxMDU2LjI2KzQxNC4wMDlDMTA1Ny4xMys0MDMuMzY1KzEwNjguMzUrMzk5LjMzOCsxMDcyLjY2KzM5OS45MTNaIi8+JiN4YTs8L2c+JiN4YTs8ZyBvcGFjaXR5PSIxIj4mI3hhOzxwYXRoIG9wYWNpdHk9IjEiIGZpbGw9Im5vbmUiIHN0cm9rZS1saW5lY2FwPSJzcXVhcmUiIHN0cm9rZS13aWR0aD0iNSIgc3Ryb2tlPSIjMjM1YzgzIiBkPSJNMjEyOC4xMysxMTIyLjA5QzIxMjguMTMrMTEyMi4wOSsyMTI5LjI0KzExMjEuMzcrMjEyOS43MSsxMTIwLjkxQzIxMzIuOTgrMTExNy42NCsyMTQyLjQ2KzExMjMuMzMrMjE0NS40MysxMTI2LjgxQzIxNTQuMzUrMTEzNy4yMSsyMTU5Ljg5KzExNTAuMzQrMjE2Ny4wNisxMTYxLjhDMjE3MS43MisxMTY5LjI3KzIxNzAuNSsxMTg1LjEzKzIxNzEuNzgrMTE5NC4wNEMyMTcxLjk4KzExOTUuNDcrMjE3MC43MisxMTk4LjM3KzIxNzIuMTcrMTE5OC4zN0MyMTcyLjg2KzExOTguMzcrMjE3NC40OSsxMTgzLjIyKzIxNzQuNTMrMTE4My4wM0MyMTc2LjgxKzExNzEuNjQrMjE3OC42MysxMTYxLjIxKzIxODQuMzYrMTE1MC43OUMyMTkxLjUxKzExMzcuNzkrMjE5Ny4yMysxMTIyLjQ1KzIyMDguMzQrMTExMi4yNkMyMjE0LjU2KzExMDYuNTYrMjIyMy44MisxMTA4LjI5KzIyMjMuNTYrMTEwOS4zNSIvPiYjeGE7PHBhdGggb3BhY2l0eT0iMSIgZmlsbD0iI2ZmZmZmZiIgc3Ryb2tlLWxpbmVjYXA9InNxdWFyZSIgc3Ryb2tlLXdpZHRoPSI1IiBzdHJva2U9IiMyMzVjODMiIGQ9Ik0yMTUwLjMxKzEwNDIuNzRDMjE1MC4zMSsxMDQyLjc0KzIxNDkuMSsxMDY1LjM5KzIxNDguNzMrMTA2OC4yMkMyMTQ3LjU0KzEwNzcuMzUrMjE0Ny44MisxMDk4KzIxNDkrMTA5Ny40MUMyMTUwLjg5KzEwOTYuNDYrMjE2Ny41NysxMDg0LjE0KzIxNjcuNTcrMTA4NC4xNEMyMTY3LjU3KzEwODQuMTQrMjE5NC4zKzEwNjcuMjUrMjE5My44MisxMDY1LjgyQzIxOTIuMDcrMTA2MC41NisyMTUwLjMxKzEwNDIuNzQrMjE1MC4zMSsxMDQyLjc0WiIvPiYjeGE7PHBhdGggb3BhY2l0eT0iMSIgZmlsbD0ibm9uZSIgc3Ryb2tlLWxpbmVjYXA9InNxdWFyZSIgc3Ryb2tlLXdpZHRoPSI1IiBzdHJva2U9IiMyMzVjODMiIGQ9Ik0yMjM2LjgyKzEwOTcuOTRDMjIzMS43NCsxMDk4Ljc1KzIyMjcuMjkrMTA5OS41OSsyMjIzLjM4KzExMDAuNDNDMjE5OS4yMisxMTA1LjYyKzIyMDEuOCsxMTA2LjcrMjIwMS44KzExMDYuN0MyMjAxLjgrMTEwNi43KzIxNzkuOTErMTExOC4yNSsyMTU5LjYxKzExMTUuNzJDMjEzMi4wMisxMTEyLjI3KzIxMjEuNzUrMTExOC4xOSsyMTEzLjE4KzExMjYuMDYiLz4mI3hhOzwvZz4mI3hhOzxnIG9wYWNpdHk9IjEiPiYjeGE7PHBhdGggc3Ryb2tlLWxpbmVqb2luPSJiZXZlbCIgb3BhY2l0eT0iMSIgc3Ryb2tlLWxpbmVjYXA9InNxdWFyZSIgZmlsbD0ibm9uZSIgZD0iTTI0NDIuOCs1NDMuNjYzQzI0NDQuMTgrNTI0LjM2NysyNDQ1LjcyKzUwOS4xNDgrMjQ1MS4yNys0OTcuMzkxQzI0NTQuNzErNDkwLjA4OSsyNDYyLjQ2KzQ2NC44MjUrMjQ4Ni42Mis0NjYuNjIxQzI1MDYuMzUrNDY4LjA4NysyNTEwLjU0KzQ5Mi4wNzUrMjUxMy44OCs1MDEuMzI5QzI1MTUuMzUrNTA1LjM5NysyNTE4LjgxKzUyNC4xNysyNTE5KzU0MS4zIiBzdHJva2Utd2lkdGg9IjUiIHN0cm9rZT0iIzVlNDU5MSIvPiYjeGE7PHBhdGggc3Ryb2tlLWxpbmVqb2luPSJiZXZlbCIgb3BhY2l0eT0iMSIgc3Ryb2tlLWxpbmVjYXA9InNxdWFyZSIgZmlsbD0ibm9uZSIgZD0iTTI0MzQuMzcrNDYzLjAzMUMyNDM0Ljk0KzQ3Mi4xMDMrMjQzMC42NSs1NTAuNjc4KzI0MzguMzIrNTUwLjE0N0MyNDQ5LjUrNTQ5LjM3MysyNDc0Ljg2KzU0OS44MSsyNDg0LjU0KzU0OC43ODJDMjQ5OC42NCs1NDcuMjg3KzI0OTguNjkrNTQ4LjEzNSsyNTEyLjcrNTQ5LjE3NkMyNTE0LjQ1KzU0OS4zMDYrMjUyNy4zNis1NDkuODkxKzI1MjguMjYrNTQ4LjM4OUMyNTMwLjk5KzU0My44MSsyNTMwLjM1KzQ2MS45MTkrMjUyNy40Nys0NTcuNDJDMjUyNy40Mys0NTcuMzY2KzI1MDcuNjgrNDU2Ljk1NSsyNTA1LjYxKzQ1Ni45MDFDMjQ4NS43Nis0NTYuMzg1KzI0NzkuODgrNDU3Ljc4NCsyNDYwLjIzKzQ1OC40NDNDMjQ1My40Mys0NTguNjcxKzI0MzMuOTIrNDU2LjA0NSsyNDM0LjM3KzQ2My4wMzFaIiBzdHJva2Utd2lkdGg9IjUiIHN0cm9rZT0iIzVlNDU5MSIvPiYjeGE7PHBhdGggc3Ryb2tlLWxpbmVqb2luPSJiZXZlbCIgb3BhY2l0eT0iMSIgc3Ryb2tlLWxpbmVjYXA9InNxdWFyZSIgZmlsbD0iI2ZmZmZmZiIgZD0iTTI0NzIuODIrNDQxLjE4OEMyNDY5Ljk4KzQ0MC4xODMrMjQ3My41KzM5Ni43MzkrMjQ3Mi43NyszOTcuOTU3QzI0NzEuNDUrNDAwLjE2OSsyNDg1LjM5KzQwNi44NTQrMjQ5MC44NCs0MTAuMjFDMjUwMi4yNCs0MTcuMjM4KzI1MDkuOTMrNDIyLjc2MysyNTA4LjIrNDIzLjc3NEMyNDk5LjA2KzQyOS4wOTkrMjQ4MC4wOSs0NDMuNzY0KzI0NzIuODIrNDQxLjE4OFoiIHN0cm9rZS13aWR0aD0iNSIgc3Ryb2tlPSIjNWU0NTkxIi8+JiN4YTs8cGF0aCBzdHJva2UtbGluZWpvaW49ImJldmVsIiBvcGFjaXR5PSIxIiBzdHJva2UtbGluZWNhcD0ic3F1YXJlIiBmaWxsPSJub25lIiBkPSJNMjQ2Mi40Mis1NTcuNjMyQzI0NjIuNDIrNTU3LjYzMisyNDU1LjErNTkyLjcwNysyNDU2LjI5KzU5Mi43MDdDMjQ1OC4xKzU5Mi43MDcrMjQ3MC4yNys1OTYuMjA5KzI0NzEuODUrNTk1LjM0MSIgc3Ryb2tlLXdpZHRoPSI1IiBzdHJva2U9IiM1ZTQ1OTEiLz4mI3hhOzxwYXRoIHN0cm9rZS1saW5lam9pbj0iYmV2ZWwiIG9wYWNpdHk9IjEiIHN0cm9rZS1saW5lY2FwPSJzcXVhcmUiIGZpbGw9Im5vbmUiIGQ9Ik0yNDkyLjcyKzU1OC4zMTNDMjQ5MS4xMSs1NTUuMDg2KzI0ODUuMjcrNTkxLjI5NSsyNDg5LjMyKzU5Mi43MDdDMjQ5NCs1OTQuMzQrMjUwMi4yOSs1OTYuMzQxKzI1MDQuODcrNTkzLjE5NyIgc3Ryb2tlLXdpZHRoPSI1IiBzdHJva2U9IiM1ZTQ1OTEiLz4mI3hhOzwvZz4mI3hhOzx0ZXh0IHRyYW5zZm9ybT0ibWF0cml4KDEgMCAwIDEgNTAwIDc0OS43MDMpIiBvcGFjaXR5PSIxIiBmb250LXNpemU9IjUwIiBmaWxsPSIjZjA5YjNjIiB0ZXh0LWFuY2hvcj0ic3RhcnQiIHk9IjAiIGZvbnQtZmFtaWx5PSInTm90ZXdvcnRoeS1Cb2xkJyIgc3R5bGU9ImZvbnQtZmFtaWx5OidOb3Rld29ydGh5LUJvbGQnLCAnTm90ZXdvcnRoeSc7Zm9udC13ZWlnaHQ6NzAwOyIgeD0iMCI+JiN4YTs8dHNwYW4gdGV4dExlbmd0aD0iMjgzLjI1IiB5PSI2NCIgeD0iMCI+JiN4YTtGYWNpbGl0YXRvcnMgJmFtcDthbXA7JiN4YTs8L3RzcGFuPiYjeGE7PHRzcGFuIHRleHRMZW5ndGg9IjMxOS44MTIiIHk9IjE0NSIgeD0iMCI+JiN4YTtUcmFuc2Zvcm1hdGlvbjwvdHNwYW4+JiN4YTs8L3RleHQ+JiN4YTs8dGV4dCB0cmFuc2Zvcm09Im1hdHJpeCgxIDAgMCAxIDE3OTguNzIgODk3LjIwMykiIG9wYWNpdHk9IjAuODAxOTE3IiBmb250LXNpemU9IjI0IiBmaWxsPSIjMDAwMDAwIiB0ZXh0LWFuY2hvcj0ibWlkZGxlIiB5PSIwIiBmb250LWZhbWlseT0iJ05vdGV3b3J0aHktQm9sZCciIHN0eWxlPSJmb250LWZhbWlseTonTm90ZXdvcnRoeS1Cb2xkJywgJ05vdGV3b3J0aHknO2ZvbnQtd2VpZ2h0OjcwMDsiIHg9IjAiPiYjeGE7PHRzcGFuIHRleHRMZW5ndGg9IjEzNy43IiB5PSIzMSIgeD0iNzIiPiYjeGE7UmVsZWFzZSBUcmFpbiYjeGE7PC90c3Bhbj4mI3hhOzx0c3BhbiB0ZXh0TGVuZ3RoPSI5Mi4wNyIgeT0iNzAiIHg9IjcyIj4mI3hhO0VuZ2luZWVyPC90c3Bhbj4mI3hhOzwvdGV4dD4mI3hhOzx0ZXh0IHRyYW5zZm9ybT0ibWF0cml4KDEgMCAwIDEgMTkzOC4xNCA4OTcuMjAzKSIgb3BhY2l0eT0iMC44MDE5MTciIGZvbnQtc2l6ZT0iMjQiIGZpbGw9IiMwMDAwMDAiIHRleHQtYW5jaG9yPSJtaWRkbGUiIHk9IjAiIGZvbnQtZmFtaWx5PSInTm90ZXdvcnRoeS1Cb2xkJyIgc3R5bGU9ImZvbnQtZmFtaWx5OidOb3Rld29ydGh5LUJvbGQnLCAnTm90ZXdvcnRoeSc7Zm9udC13ZWlnaHQ6NzAwOyIgeD0iMCI+JiN4YTs8dHNwYW4gdGV4dExlbmd0aD0iODEuNzgiIHk9IjMxIiB4PSI3Ny45NDk4Ij4mI3hhO1NvbHV0aW9uJiN4YTs8L3RzcGFuPiYjeGE7PHRzcGFuIHRleHRMZW5ndGg9IjE0Ny45IiB5PSI3MCIgeD0iNzcuOTQ5OCI+JiN4YTtUcmFpbiBFbmdpbmVlcjwvdHNwYW4+JiN4YTs8L3RleHQ+JiN4YTs8ZyBvcGFjaXR5PSIxIj4mI3hhOzxwYXRoIG9wYWNpdHk9IjEiIGZpbGw9Im5vbmUiIHN0cm9rZS1saW5lY2FwPSJzcXVhcmUiIHN0cm9rZS13aWR0aD0iNSIgc3Ryb2tlPSIjZjA5YjNjIiBkPSJNMjE0NS40Kzc3Ni4xNjVDMjE1My4zOCs3NjQuNzgyKzIxNjIuMTIrNzU1LjYxOSsyMTc3LjEzKzc2Ny40OTRDMjE4Ni42Mis3NzUuMDA5KzIxOTEuMTQrODA0Ljg3OCsyMTkyLjE0KzgxNC43NDZDMjE5My42Nys4MjkuNzQ3KzIxOTkuNjUrODY3LjM2KzIxOTkuMys4NjcuMTlDMjE4NC44MSs4NjAuMDU5KzIxMjkuODgrODY2LjgyNisyMTI5LjkxKzg2Ni43NThDMjEzMS4zNis4NjMuODE3KzIxMjkuOTcrNzk4LjE4MysyMTQ1LjQrNzc2LjE2NVoiLz4mI3hhOzxwYXRoIG9wYWNpdHk9IjEiIGZpbGw9IiNmZmZmZmYiIHN0cm9rZS1saW5lY2FwPSJzcXVhcmUiIHN0cm9rZS13aWR0aD0iNSIgc3Ryb2tlPSIjZjA5YjNjIiBkPSJNMjE4My41Mis3MzAuOTVDMjE3OC4xOSs3MjMuOTQrMjE1MS42Nis3MDguMTMrMjE1MS41OCs3MDguMjlDMjE0Ny44MSs3MTUuOTUrMjE0OS4xNCs3NTguNDErMjE0OS4xNis3NTguNEMyMTYyLjk0Kzc1My43MSsyMTg1LjQ0KzczMy40OCsyMTgzLjUyKzczMC45NVoiLz4mI3hhOzwvZz4mI3hhOzx0ZXh0IHRyYW5zZm9ybT0ibWF0cml4KDEgMCAwIDEgMjA3OC42OSA4OTcuMjAzKSIgb3BhY2l0eT0iMC44MDE5MTciIGZvbnQtc2l6ZT0iMjQiIGZpbGw9IiMwMDAwMDAiIHRleHQtYW5jaG9yPSJtaWRkbGUiIHk9IjAiIGZvbnQtZmFtaWx5PSInTm90ZXdvcnRoeS1Cb2xkJyIgc3R5bGU9ImZvbnQtZmFtaWx5OidOb3Rld29ydGh5LUJvbGQnLCAnTm90ZXdvcnRoeSc7Zm9udC13ZWlnaHQ6NzAwOyIgeD0iMCI+JiN4YTs8dHNwYW4gdGV4dExlbmd0aD0iMTUzLjUxIiB5PSIzMSIgeD0iODcuMzQ5OSI+JiN4YTtUcmFuc2Zvcm1hdGlvbiYjeGE7PC90c3Bhbj4mI3hhOzx0c3BhbiB0ZXh0TGVuZ3RoPSI2NS40MyIgeT0iNzAiIHg9Ijg3LjM0OTkiPiYjeGE7Q29hY2g8L3RzcGFuPiYjeGE7PC90ZXh0PiYjeGE7PHRleHQgdHJhbnNmb3JtPSJtYXRyaXgoMSAwIDAgMSAyNDY0LjYgODk2KSIgb3BhY2l0eT0iMC44MDE5MTciIGZvbnQtc2l6ZT0iMjQiIGZpbGw9IiMwMDAwMDAiIHRleHQtYW5jaG9yPSJtaWRkbGUiIHk9IjAiIGZvbnQtZmFtaWx5PSInTm90ZXdvcnRoeS1Cb2xkJyIgc3R5bGU9ImZvbnQtZmFtaWx5OidOb3Rld29ydGh5LUJvbGQnLCAnTm90ZXdvcnRoeSc7Zm9udC13ZWlnaHQ6NzAwOyIgeD0iMCI+JiN4YTs8dHNwYW4gdGV4dExlbmd0aD0iMTUzLjUxIiB5PSIzMSIgeD0iMTA3LjY1NSI+JiN4YTtUcmFuc2Zvcm1hdGlvbiYjeGE7PC90c3Bhbj4mI3hhOzx0c3BhbiB0ZXh0TGVuZ3RoPSI0OS45OCIgeT0iNzAiIHg9IjEwNy42NTUiPiYjeGE7TGVhZDwvdHNwYW4+JiN4YTs8L3RleHQ+JiN4YTs8dGV4dCB0cmFuc2Zvcm09Im1hdHJpeCgxIDAgMCAxIDI0NzkuNDcgMTIyOSkiIG9wYWNpdHk9IjAuODAxOTE3IiBmb250LXNpemU9IjI0IiBmaWxsPSIjMDAwMDAwIiB0ZXh0LWFuY2hvcj0ibWlkZGxlIiB5PSIwIiBmb250LWZhbWlseT0iJ05vdGV3b3J0aHktQm9sZCciIHN0eWxlPSJmb250LWZhbWlseTonTm90ZXdvcnRoeS1Cb2xkJywgJ05vdGV3b3J0aHknO2ZvbnQtd2VpZ2h0OjcwMDsiIHg9IjAiPiYjeGE7PHRzcGFuIHRleHRMZW5ndGg9IjE4Ni45IiB5PSIzMSIgeD0iMTAwIj4mI3hhO1JlZ2lvbmFsIExlYWRlciAvJiN4YTs8L3RzcGFuPiYjeGE7PHRzcGFuIHRleHRMZW5ndGg9IjE2OS44IiB5PSI3MCIgeD0iMTAwIj4mI3hhO0Rpci4gUHJvZHVjdCBMaW5lPC90c3Bhbj4mI3hhOzwvdGV4dD4mI3hhOzx0ZXh0IHRyYW5zZm9ybT0ibWF0cml4KDEgMCAwIDEgMjM3NSAxNTQ2KSIgb3BhY2l0eT0iMC44MDE5MTciIGZvbnQtc2l6ZT0iMjQiIGZpbGw9IiMwMDAwMDAiIHRleHQtYW5jaG9yPSJtaWRkbGUiIHk9IjAiIGZvbnQtZmFtaWx5PSInTm90ZXdvcnRoeS1Cb2xkJyIgc3R5bGU9ImZvbnQtZmFtaWx5OidOb3Rld29ydGh5LUJvbGQnLCAnTm90ZXdvcnRoeSc7Zm9udC13ZWlnaHQ6NzAwOyIgeD0iMCI+JiN4YTs8dHNwYW4gdGV4dExlbmd0aD0iMTIyLjciIHk9IjMxIiB4PSIxMTUuMDA1Ij4mI3hhO0hlYWQgb2YgUEwgPC90c3Bhbj4mI3hhOzx0c3BhbiB0ZXh0TGVuZ3RoPSIyMTUuNzMiIHk9IjcwIiB4PSIxMTIuNSI+JiN4YTtFbmdpbmVlcmluZyAvIFBlb3BsZTwvdHNwYW4+JiN4YTs8L3RleHQ+JiN4YTs8dGV4dCB0cmFuc2Zvcm09Im1hdHJpeCgxIDAgMCAxIDIwMjAuMjggMTU3Mi44KSIgb3BhY2l0eT0iMC44MDE5MTciIGZvbnQtc2l6ZT0iMjQiIGZpbGw9IiMwMDAwMDAiIHRleHQtYW5jaG9yPSJtaWRkbGUiIHk9IjAiIGZvbnQtZmFtaWx5PSInTm90ZXdvcnRoeS1Cb2xkJyIgc3R5bGU9ImZvbnQtZmFtaWx5OidOb3Rld29ydGh5LUJvbGQnLCAnTm90ZXdvcnRoeSc7Zm9udC13ZWlnaHQ6NzAwOyIgeD0iMCI+JiN4YTs8dHNwYW4gdGV4dExlbmd0aD0iMTU0LjU2IiB5PSIzMSIgeD0iMTIwLjI4NCI+JiN4YTtMb2NhdGlvbiBMZWFkczwvdHNwYW4+JiN4YTs8L3RleHQ+JiN4YTs8dGV4dCB0cmFuc2Zvcm09Im1hdHJpeCgxIDAgMCAxIDE3OTYuNzYgMTU3Mi44KSIgb3BhY2l0eT0iMC44MDE5MTciIGZvbnQtc2l6ZT0iMjQiIGZpbGw9IiMwMDAwMDAiIHRleHQtYW5jaG9yPSJtaWRkbGUiIHk9IjAiIGZvbnQtZmFtaWx5PSInTm90ZXdvcnRoeS1Cb2xkJyIgc3R5bGU9ImZvbnQtZmFtaWx5OidOb3Rld29ydGh5LUJvbGQnLCAnTm90ZXdvcnRoeSc7Zm9udC13ZWlnaHQ6NzAwOyIgeD0iMCI+JiN4YTs8dHNwYW4gdGV4dExlbmd0aD0iMTk5LjMyIiB5PSIzMSIgeD0iMTIwLjI4NCI+JiN4YTtMZWFuLUFnaWxlIExlYWRlcnM8L3RzcGFuPiYjeGE7PC90ZXh0PiYjeGE7PHRleHQgdHJhbnNmb3JtPSJtYXRyaXgoMSAwIDAgMSAyMTAwIDEyMjEpIiBvcGFjaXR5PSIwLjgwMTkxNyIgZm9udC1zaXplPSIyNCIgZmlsbD0iIzAwMDAwMCIgdGV4dC1hbmNob3I9Im1pZGRsZSIgeT0iMCIgZm9udC1mYW1pbHk9IidOb3Rld29ydGh5LUJvbGQnIiBzdHlsZT0iZm9udC1mYW1pbHk6J05vdGV3b3J0aHktQm9sZCcsICdOb3Rld29ydGh5Jztmb250LXdlaWdodDo3MDA7IiB4PSIwIj4mI3hhOzx0c3BhbiB0ZXh0TGVuZ3RoPSI5Ni4zMyIgeT0iMzEiIHg9Ijc3LjUwNSI+JiN4YTtCdXNpbmVzcyA8L3RzcGFuPiYjeGE7PHRzcGFuIHRleHRMZW5ndGg9IjY5LjkiIHk9IjcwIiB4PSI3NSI+JiN4YTtPd25lcjwvdHNwYW4+JiN4YTs8L3RleHQ+JiN4YTs8dGV4dCB0cmFuc2Zvcm09Im1hdHJpeCgxIDAgMCAxIDE4MDAgMTIyMSkiIG9wYWNpdHk9IjAuODAxOTE3IiBmb250LXNpemU9IjI0IiBmaWxsPSIjMDAwMDAwIiB0ZXh0LWFuY2hvcj0ibWlkZGxlIiB5PSIwIiBmb250LWZhbWlseT0iJ05vdGV3b3J0aHktQm9sZCciIHN0eWxlPSJmb250LWZhbWlseTonTm90ZXdvcnRoeS1Cb2xkJywgJ05vdGV3b3J0aHknO2ZvbnQtd2VpZ2h0OjcwMDsiIHg9IjAiPiYjeGE7PHRzcGFuIHRleHRMZW5ndGg9Ijg0LjkiIHk9IjMxIiB4PSI3Ny41MDUiPiYjeGE7UHJvZHVjdCA8L3RzcGFuPiYjeGE7PHRzcGFuIHRleHRMZW5ndGg9IjkzLjA5IiB5PSI3MCIgeD0iNzUiPiYjeGE7TWFuYWdlcjwvdHNwYW4+JiN4YTs8L3RleHQ+JiN4YTs8dGV4dCB0cmFuc2Zvcm09Im1hdHJpeCgxIDAgMCAxIDE0MjUgMTIxMC41KSIgb3BhY2l0eT0iMC44MDE5MTciIGZvbnQtc2l6ZT0iMjQiIGZpbGw9IiMwMDAwMDAiIHRleHQtYW5jaG9yPSJtaWRkbGUiIHk9IjAiIGZvbnQtZmFtaWx5PSInTm90ZXdvcnRoeS1Cb2xkJyIgc3R5bGU9ImZvbnQtZmFtaWx5OidOb3Rld29ydGh5LUJvbGQnLCAnTm90ZXdvcnRoeSc7Zm9udC13ZWlnaHQ6NzAwOyIgeD0iMCI+JiN4YTs8dHNwYW4gdGV4dExlbmd0aD0iODQuOSIgeT0iMzEiIHg9Ijc3LjUwNSI+JiN4YTtQcm9kdWN0IDwvdHNwYW4+JiN4YTs8dHNwYW4gdGV4dExlbmd0aD0iNjkuOSIgeT0iNzAiIHg9Ijc1Ij4mI3hhO093bmVyPC90c3Bhbj4mI3hhOzwvdGV4dD4mI3hhOzxnIG9wYWNpdHk9IjEiPiYjeGE7PHBhdGggb3BhY2l0eT0iMSIgZmlsbD0ibm9uZSIgc3Ryb2tlLWxpbmVjYXA9InNxdWFyZSIgc3Ryb2tlLXdpZHRoPSI1IiBzdHJva2U9IiM3NGI1ODciIGQ9Ik0yMzYzLjExKzEwODcuMUMyMzYzLjExKzEwODcuMSsyMzYyLjI1KzEwODguMzErMjM2Mi4xNSsxMDg5LjAyQzIzNjEuMjMrMTA5NS40MysyMzYxLjA5KzExMDIuMzIrMjM2MC44NysxMTA4LjgyQzIzNjAuNDIrMTEyMi41KzIzNjAuNjUrMTEzNi4zOCsyMzU5LjYrMTE1MC4wMkMyMzU5LjA4KzExNTYuNjgrMjM1OS4yOCsxMTY0LjA2KzIzNTkuMjgrMTE3MC43N0MyMzU5LjI4KzExNzAuODUrMjM1OS4yOCsxMTczLjAxKzIzNTkuMjgrMTE3My4wMUMyMzY4LjU4KzExNzMuMDErMjM5MS42NSsxMTY0LjI1KzI0MDMuMzUrMTE2Mi43OUMyNDA5LjU0KzExNjIuMDIrMjQxNi4yOCsxMTYxLjgzKzI0MjIuNTErMTE2MS44M0MyNDIyLjkzKzExNjEuODMrMjQyOC43MisxMTYyLjAxKzI0MjYuOTgrMTE2My43NUMyNDI2LjgyKzExNjMuOTErMjQyNC44OSsxMTY1LjUyKzI0MjUuMzgrMTE2NS4wM0MyNDI4Ljc4KzExNjEuNjIrMjQyNy4xNysxMTQzLjk0KzI0MjcuNjIrMTEzOS40OEMyNDI4LjgrMTEyNy42OCsyNDM3LjUyKzEwOTEuMDYrMjQzOS40MysxMDg2LjQ3QzI0NDEuODErMTA4MC43OCsyNDQyLjQ2KzEwODIuNjkrMjQ0Mi4wMysxMDc0LjA3Ii8+JiN4YTs8cGF0aCBvcGFjaXR5PSIxIiBmaWxsPSJub25lIiBzdHJva2UtbGluZWNhcD0ic3F1YXJlIiBzdHJva2Utd2lkdGg9IjUiIHN0cm9rZT0iIzc0YjU4NyIgZD0iTTIzNzQuMzcrMTE3OUMyMzc0LjM3KzExNzIuMzkrMjM3MC40OSsxMjE5LjYzKzIzNzEuNTkrMTIxOS40MkMyMzc2LjgrMTIxOC4zNysyMzgxLjYrMTIxOS43NysyMzg1LjkxKzEyMTkuMDYiLz4mI3hhOzxwYXRoIG9wYWNpdHk9IjEiIGZpbGw9Im5vbmUiIHN0cm9rZS1saW5lY2FwPSJzcXVhcmUiIHN0cm9rZS13aWR0aD0iNSIgc3Ryb2tlPSIjNzRiNTg3IiBkPSJNMjQwMi41MSsxMTc0LjhDMjQwMi41MSsxMTc0LjUxKzI0MDEuNzErMTE4Ni41OCsyNDAxLjE5KzExOTAuOUMyNDAwLjE0KzExOTkuNjYrMjM5Ny44OCsxMjE2LjkxKzIzOTcuODgrMTIxNi45MUMyMzk3Ljg4KzEyMTYuOTErMjQwOS4xMysxMjE3LjQ1KzI0MTIuMTkrMTIxNy40NSIvPiYjeGE7PHBhdGggb3BhY2l0eT0iMSIgZmlsbD0ibm9uZSIgc3Ryb2tlLWxpbmVjYXA9InNxdWFyZSIgc3Ryb2tlLXdpZHRoPSI1IiBzdHJva2U9IiM3NGI1ODciIGQ9Ik0yMzYyLjE1KzEwODYuMTVDMjM2Mi4xNSsxMDg2LjE1KzIzNjMuMDUrMTA4NS41NisyMzYzLjQzKzEwODUuMTlDMjM2Ni4wOSsxMDgyLjUzKzIzNzMuNzgrMTA4Ny4xNisyMzc2LjIrMTA4OS45OEMyMzgzLjQ1KzEwOTguNDMrMjM4Ny45NSsxMTA5LjA5KzIzOTMuNzcrMTExOC40QzIzOTcuNTYrMTEyNC40NisyMzk2LjU3KzExMzcuMzUrMjM5Ny42KzExNDQuNTlDMjM5Ny43NysxMTQ1Ljc1KzIzOTYuNzQrMTE0OC4xKzIzOTcuOTIrMTE0OC4xQzIzOTguNDgrMTE0OC4xKzIzOTkuOCsxMTM1LjgrMjM5OS44MysxMTM1LjY1QzI0MDEuNjgrMTEyNi40KzI0MDMuMTYrMTExNy45MisyNDA3LjgyKzExMDkuNDZDMjQxMy42MysxMDk4LjkrMjQxOC4yNysxMDg2LjQ0KzI0MjcuMysxMDc4LjE2QzI0MzIuMzUrMTA3My41MysyNDM5Ljg3KzEwNzQuOTMrMjQzOS42NisxMDc1LjgiLz4mI3hhOzxwYXRoIG9wYWNpdHk9IjEiIGZpbGw9IiNmZmZmZmYiIHN0cm9rZS1saW5lY2FwPSJzcXVhcmUiIHN0cm9rZS13aWR0aD0iNSIgc3Ryb2tlPSIjNzRiNTg3IiBkPSJNMjM4MC4xNisxMDIxLjY5QzIzODAuMTYrMTAyMS42OSsyMzc5LjE4KzEwNDAuMDkrMjM3OC44OCsxMDQyLjM5QzIzNzcuOTErMTA0OS44KzIzNzguMTQrMTA2Ni41OCsyMzc5LjErMTA2Ni4xQzIzODAuNjMrMTA2NS4zMysyMzk0LjE4KzEwNTUuMzIrMjM5NC4xOCsxMDU1LjMyQzIzOTQuMTgrMTA1NS4zMisyNDE1Ljg5KzEwNDEuNisyNDE1LjUrMTA0MC40NEMyNDE0LjA4KzEwMzYuMTcrMjM4MC4xNisxMDIxLjY5KzIzODAuMTYrMTAyMS42OVoiLz4mI3hhOzxwYXRoIG9wYWNpdHk9IjEiIGZpbGw9Im5vbmUiIHN0cm9rZS1saW5lY2FwPSJzcXVhcmUiIHN0cm9rZS13aWR0aD0iNSIgc3Ryb2tlPSIjNzRiNTg3IiBkPSJNMjQ1MC40MysxMDY2LjUzQzI0NDYuMzErMTA2Ny4xOSsyNDQyLjY5KzEwNjcuODcrMjQzOS41MSsxMDY4LjU1QzI0MTkuODkrMTA3Mi43NisyNDIxLjk4KzEwNzMuNjQrMjQyMS45OCsxMDczLjY0QzI0MjEuOTgrMTA3My42NCsyNDA0LjIxKzEwODMuMDMrMjM4Ny43MisxMDgwLjk3QzIzNjUuMysxMDc4LjE3KzIzNTYuOTcrMTA4Mi45OCsyMzUwKzEwODkuMzciLz4mI3hhOzwvZz4mI3hhOzx0ZXh0IHRyYW5zZm9ybT0ibWF0cml4KDEgMCAwIDEgMjI5My45MyAxMjI5KSIgb3BhY2l0eT0iMC44MDE5MTciIGZvbnQtc2l6ZT0iMjQiIGZpbGw9IiMwMDAwMDAiIHRleHQtYW5jaG9yPSJtaWRkbGUiIHk9IjAiIGZvbnQtZmFtaWx5PSInTm90ZXdvcnRoeS1Cb2xkJyIgc3R5bGU9ImZvbnQtZmFtaWx5OidOb3Rld29ydGh5LUJvbGQnLCAnTm90ZXdvcnRoeSc7Zm9udC13ZWlnaHQ6NzAwOyIgeD0iMCI+JiN4YTs8dHNwYW4gdGV4dExlbmd0aD0iMTIyLjciIHk9IjMxIiB4PSI5Ni44NDciPiYjeGE7SGVhZCBvZiBQTCA8L3RzcGFuPiYjeGE7PHRzcGFuIHRleHRMZW5ndGg9IjE3OC41MyIgeT0iNzAiIHg9Ijk0LjM0MiI+JiN4YTtGdW5jdGlvbnMgLyBQbGF0Zi48L3RzcGFuPiYjeGE7PC90ZXh0PiYjeGE7PGcgb3BhY2l0eT0iMSI+JiN4YTs8cGF0aCBvcGFjaXR5PSIxIiBmaWxsPSJub25lIiBzdHJva2UtbGluZWNhcD0ic3F1YXJlIiBzdHJva2Utd2lkdGg9IjUiIHN0cm9rZT0iIzc0YjU4NyIgZD0iTTIzNjQuNjUrNzY1LjQxQzIzNjQuNjUrNzY1LjQxKzIzNjMuNzkrNzY2LjYyKzIzNjMuNjkrNzY3LjMzQzIzNjIuNzcrNzczLjc0KzIzNjIuNjMrNzgwLjYzKzIzNjIuNDErNzg3LjEzQzIzNjEuOTYrODAwLjgxKzIzNjIuMTkrODE0LjY5KzIzNjEuMTQrODI4LjMzQzIzNjAuNjIrODM0Ljk5KzIzNjAuODIrODQyLjM3KzIzNjAuODIrODQ5LjA4QzIzNjAuODIrODQ5LjE2KzIzNjAuODIrODUxLjMyKzIzNjAuODIrODUxLjMyQzIzNzAuMTIrODUxLjMyKzIzOTMuMTkrODQyLjU2KzI0MDQuODkrODQxLjFDMjQxMS4wOCs4NDAuMzMrMjQxNy44Mis4NDAuMTQrMjQyNC4wNSs4NDAuMTRDMjQyNC40Nys4NDAuMTQrMjQzMC4yNis4NDAuMzIrMjQyOC41Mis4NDIuMDZDMjQyOC4zNis4NDIuMjIrMjQyNi40Mys4NDMuODMrMjQyNi45Mis4NDMuMzRDMjQzMC4zMis4MzkuOTMrMjQyOC43MSs4MjIuMjUrMjQyOS4xNis4MTcuNzlDMjQzMC4zNCs4MDUuOTkrMjQzOS4wNis3NjkuMzcrMjQ0MC45Nys3NjQuNzhDMjQ0My4zNSs3NTkuMDkrMjQ0NCs3NjErMjQ0My41Nys3NTIuMzgiLz4mI3hhOzxwYXRoIG9wYWNpdHk9IjEiIGZpbGw9Im5vbmUiIHN0cm9rZS1saW5lY2FwPSJzcXVhcmUiIHN0cm9rZS13aWR0aD0iNSIgc3Ryb2tlPSIjNzRiNTg3IiBkPSJNMjM3NS45MSs4NTcuMzFDMjM3NS45MSs4NTAuNysyMzcyLjAzKzg5Ny45NCsyMzczLjEzKzg5Ny43M0MyMzc4LjM0Kzg5Ni42OCsyMzgzLjE0Kzg5OC4wOCsyMzg3LjQ1Kzg5Ny4zNyIvPiYjeGE7PHBhdGggb3BhY2l0eT0iMSIgZmlsbD0ibm9uZSIgc3Ryb2tlLWxpbmVjYXA9InNxdWFyZSIgc3Ryb2tlLXdpZHRoPSI1IiBzdHJva2U9IiM3NGI1ODciIGQ9Ik0yNDA0LjA1Kzg1My4xMUMyNDA0LjA1Kzg1Mi44MisyNDAzLjI1Kzg2NC44OSsyNDAyLjczKzg2OS4yMUMyNDAxLjY4Kzg3Ny45NysyMzk5LjQyKzg5NS4yMisyMzk5LjQyKzg5NS4yMkMyMzk5LjQyKzg5NS4yMisyNDEwLjY3Kzg5NS43NisyNDEzLjczKzg5NS43NiIvPiYjeGE7PHBhdGggb3BhY2l0eT0iMSIgZmlsbD0ibm9uZSIgc3Ryb2tlLWxpbmVjYXA9InNxdWFyZSIgc3Ryb2tlLXdpZHRoPSI1IiBzdHJva2U9IiM3NGI1ODciIGQ9Ik0yMzYzLjY5Kzc2NC40NkMyMzYzLjY5Kzc2NC40NisyMzY0LjU5Kzc2My44NysyMzY0Ljk3Kzc2My41QzIzNjcuNjMrNzYwLjg0KzIzNzUuMzIrNzY1LjQ3KzIzNzcuNzQrNzY4LjI5QzIzODQuOTkrNzc2Ljc0KzIzODkuNDkrNzg3LjQrMjM5NS4zMSs3OTYuNzFDMjM5OS4xKzgwMi43NysyMzk4LjExKzgxNS42NisyMzk5LjE0KzgyMi45QzIzOTkuMzErODI0LjA2KzIzOTguMjgrODI2LjQxKzIzOTkuNDYrODI2LjQxQzI0MDAuMDIrODI2LjQxKzI0MDEuMzQrODE0LjExKzI0MDEuMzcrODEzLjk2QzI0MDMuMjIrODA0LjcxKzI0MDQuNys3OTYuMjMrMjQwOS4zNis3ODcuNzdDMjQxNS4xNys3NzcuMjErMjQxOS44MSs3NjQuNzUrMjQyOC44NCs3NTYuNDdDMjQzMy44OSs3NTEuODQrMjQ0MS40MSs3NTMuMjQrMjQ0MS4yKzc1NC4xMSIvPiYjeGE7PHBhdGggb3BhY2l0eT0iMSIgZmlsbD0iI2ZmZmZmZiIgc3Ryb2tlLWxpbmVjYXA9InNxdWFyZSIgc3Ryb2tlLXdpZHRoPSI1IiBzdHJva2U9IiM3NGI1ODciIGQ9Ik0yMzgxLjcrNzAwQzIzODEuNys3MDArMjM4MC43Mis3MTguNCsyMzgwLjQyKzcyMC43QzIzNzkuNDUrNzI4LjExKzIzNzkuNjgrNzQ0Ljg5KzIzODAuNjQrNzQ0LjQxQzIzODIuMTcrNzQzLjY0KzIzOTUuNzIrNzMzLjYzKzIzOTUuNzIrNzMzLjYzQzIzOTUuNzIrNzMzLjYzKzI0MTcuNDMrNzE5LjkxKzI0MTcuMDQrNzE4Ljc1QzI0MTUuNjIrNzE0LjQ4KzIzODEuNys3MDArMjM4MS43KzcwMFoiLz4mI3hhOzxwYXRoIG9wYWNpdHk9IjEiIGZpbGw9Im5vbmUiIHN0cm9rZS1saW5lY2FwPSJzcXVhcmUiIHN0cm9rZS13aWR0aD0iNSIgc3Ryb2tlPSIjNzRiNTg3IiBkPSJNMjQ1MS45Nys3NDQuODRDMjQ0Ny44NSs3NDUuNSsyNDQ0LjIzKzc0Ni4xOCsyNDQxLjA1Kzc0Ni44NkMyNDIxLjQzKzc1MS4wNysyNDIzLjUyKzc1MS45NSsyNDIzLjUyKzc1MS45NUMyNDIzLjUyKzc1MS45NSsyNDA1Ljc1Kzc2MS4zNCsyMzg5LjI2Kzc1OS4yOEMyMzY2Ljg0Kzc1Ni40OCsyMzU4LjUxKzc2MS4yOSsyMzUxLjU0Kzc2Ny42OCIvPiYjeGE7PC9nPiYjeGE7PHRleHQgdHJhbnNmb3JtPSJtYXRyaXgoMSAwIDAgMSAyMjg3LjY5IDg5NS4yNzEpIiBvcGFjaXR5PSIwLjgwMTkxNyIgZm9udC1zaXplPSIyNCIgZmlsbD0iIzAwMDAwMCIgdGV4dC1hbmNob3I9Im1pZGRsZSIgeT0iMCIgZm9udC1mYW1pbHk9IidOb3Rld29ydGh5LUJvbGQnIiBzdHlsZT0iZm9udC1mYW1pbHk6J05vdGV3b3J0aHktQm9sZCcsICdOb3Rld29ydGh5Jztmb250LXdlaWdodDo3MDA7IiB4PSIwIj4mI3hhOzx0c3BhbiB0ZXh0TGVuZ3RoPSIxMTcuNjkiIHk9IjMxIiB4PSIxMTkuMTU1Ij4mI3hhO0hlYWQgb2YgUEwmI3hhOzwvdHNwYW4+JiN4YTs8dHNwYW4gdGV4dExlbmd0aD0iMjIxLjA0IiB5PSI3MCIgeD0iMTE5LjE1NSI+JiN4YTtTb2x1dGlvbnMvT3BlcmF0aW9uczwvdHNwYW4+JiN4YTs8L3RleHQ+JiN4YTs8L2c+JiN4YTs8L3N2Zz4=;" vertex="1" parent="1">
          <mxGeometry width="2800" height="1980" as="geometry" />
        </mxCell>
        <mxCell id="oBUyhAsZG9yRsoBhtxP7-2" value="Unbenannte Ebene" parent="0" />
      </root>
    </mxGraphModel>
  </diagram>
</mxfile>
